<svg width="30" height="46" viewBox="0 0 30 46" fill="none" xmlns="http://www.w3.org/2000/svg">
<path fill-rule="evenodd" clip-rule="evenodd" d="M17.6758 0.274624C18.1025 0.567033 18.3576 1.05104 18.3576 1.56832V9.02475L28.1201 11.6909C28.8022 11.8771 29.2752 12.4967 29.2752 13.2038V29.2753V30.8436H27.7069H19.2971C18.4309 30.8436 17.7288 30.1414 17.7288 29.2753C17.7288 28.4091 18.4309 27.7069 19.2971 27.7069H26.1386V14.4012L16.3761 11.7351C15.694 11.5488 15.221 10.9292 15.221 10.2222V3.85692L3.13663 8.5335V27.7069H10.9942L14.3084 23.4339H11.2792C10.6748 23.4339 10.1242 23.0866 9.86386 22.5411C9.60352 21.9956 9.67979 21.3491 10.0599 20.8792L15.2405 14.4749C15.7853 13.8015 16.7728 13.6972 17.4462 14.242C18.1196 14.7867 18.2239 15.7742 17.6792 16.4476L14.5651 20.2972H17.5095C18.1081 20.2972 18.6545 20.638 18.9179 21.1756C19.1813 21.7131 19.1157 22.3537 18.7488 22.8267L13.1187 30.0858C12.8475 30.5341 12.3582 30.8357 11.7978 30.8434C11.7759 30.8439 11.754 30.844 11.7321 30.8436H1.56832H0V29.2753V7.45877V6.38404L1.00229 5.99616L16.2232 0.105713C16.7057 -0.0809797 17.2491 -0.0177852 17.6758 0.274624ZM6.79604 33.4578C5.92989 33.4578 5.22773 34.16 5.22773 35.0262C5.22773 35.8923 5.92989 36.5945 6.79604 36.5945H22.4792C23.3454 36.5945 24.0475 35.8923 24.0475 35.0262C24.0475 34.16 23.3454 33.4578 22.4792 33.4578H6.79604ZM14.4227 43.3869C12.8592 43.3869 11.6241 42.589 11.058 41.5608L14.3224 41.5608H17.7874C17.2212 42.589 15.9861 43.3869 14.4227 43.3869ZM10.27 38.947C9.17544 38.947 7.90134 39.9107 8.22569 41.3872C8.82584 44.1192 11.4652 46.0008 14.4227 46.0008C17.3802 46.0008 20.0195 44.1192 20.6196 41.3872C20.9439 39.9111 19.6705 38.947 18.5755 38.947H14.3224L10.27 38.947Z" fill="url(#paint0_linear_1047_9446)"/>
<defs>
<linearGradient id="paint0_linear_1047_9446" x1="25.0931" y1="2.8899" x2="3.48376" y2="46.4138" gradientUnits="userSpaceOnUse">
<stop stop-color="#A0FF00"/>
<stop offset="1" stop-color="#00C14D"/>
</linearGradient>
</defs>
</svg>
