<svg width="80" height="80" viewBox="0 0 80 80" fill="none" xmlns="http://www.w3.org/2000/svg">
<path fill-rule="evenodd" clip-rule="evenodd" d="M40 80C62.0914 80 80 62.0914 80 40C80 17.9086 62.0914 0 40 0C17.9086 0 0 17.9086 0 40C0 62.0914 17.9086 80 40 80Z" fill="#E7FCF0"/>
<g clip-path="url(#clip0_982_2954)">
<path d="M42.3745 20.4168C42.3745 19.6367 43.1443 19 44.103 19C45.0618 19 45.8316 19.6332 45.8316 20.4168V26.6157C45.8316 27.3958 45.0618 28.0325 44.103 28.0325C43.1443 28.0325 42.3745 27.3993 42.3745 26.6157V20.4168ZM49.9709 38.9505C51.4616 38.9505 52.8857 39.2479 54.1873 39.7866C55.5415 40.3463 56.7556 41.1649 57.7704 42.1794C58.7851 43.1939 59.6039 44.4113 60.1637 45.7581C60.7026 47.0595 61 48.4833 61 49.9735C61 51.4638 60.7026 52.8876 60.1637 54.1889C59.6039 55.5427 58.7851 56.7566 57.7704 57.7711C56.7556 58.7856 55.538 59.6042 54.1908 60.1639C52.8892 60.7026 51.465 61 49.9744 61C48.4838 61 47.0597 60.7026 45.7581 60.1639C44.4039 59.6042 43.1898 58.7856 42.175 57.7711C41.1603 56.7566 40.3415 55.5392 39.7817 54.1889C39.2428 52.8876 38.9454 51.4638 38.9454 49.9735C38.9454 48.4833 39.2428 47.0595 39.7817 45.7581C40.3415 44.4043 41.1603 43.1904 42.175 42.1759C43.1898 41.1614 44.4074 40.3428 45.7546 39.7831C47.0562 39.2479 48.4769 38.9505 49.9709 38.9505ZM49.1452 45.3663C49.1452 45.1005 49.2536 44.8591 49.4286 44.6842C49.6035 44.5092 49.845 44.4008 50.1144 44.4008C50.3838 44.4008 50.6253 44.5092 50.8002 44.6842C50.9752 44.8591 51.0837 45.1004 51.0837 45.3698V50.5262L54.9396 52.8141L54.9711 52.8351C55.1846 52.9715 55.3245 53.1779 55.3805 53.4053C55.44 53.6432 55.412 53.9021 55.2825 54.1259L55.2755 54.1364C55.2755 54.1364 55.2615 54.1609 55.251 54.1714C55.1146 54.3813 54.9081 54.5212 54.6842 54.5772C54.4463 54.6367 54.1873 54.6087 53.9634 54.4793L49.6525 51.929C49.5021 51.8486 49.3761 51.7261 49.2851 51.5827C49.1942 51.4358 49.1417 51.2644 49.1417 51.0825V45.3663H49.1452ZM56.4022 43.5437C55.5625 42.7041 54.5617 42.029 53.4525 41.5707C52.3818 41.1264 51.2061 40.8851 49.9709 40.8851C48.7358 40.8851 47.5601 41.1299 46.4894 41.5707C45.3802 42.029 44.3794 42.7041 43.5397 43.5437C42.6999 44.3833 42.0246 45.3838 41.5662 46.4928C41.1218 47.5632 40.8804 48.7386 40.8804 49.9735C40.8804 51.2084 41.1253 52.3838 41.5662 53.4543C42.0246 54.5632 42.6999 55.5637 43.5397 56.4033C44.3794 57.2429 45.3802 57.918 46.4894 58.3763C47.5601 58.8206 48.7358 59.062 49.9709 59.062C51.2061 59.062 52.3818 58.8171 53.4525 58.3763C54.5617 57.918 55.5625 57.2429 56.4022 56.4033C58.0503 54.7556 59.065 52.4853 59.065 49.9735C59.065 48.7386 58.8201 47.5632 58.3792 46.4928C57.9173 45.3838 57.242 44.3833 56.4022 43.5437ZM22.7062 39.066C22.6083 39.066 22.5208 38.6357 22.5208 38.1074C22.5208 37.5792 22.5978 37.1524 22.7062 37.1524H27.423C27.521 37.1524 27.6084 37.5827 27.6084 38.1074C27.6084 38.6322 27.5315 39.066 27.423 39.066H22.7062ZM30.2257 39.066C30.1278 39.066 30.0403 38.6357 30.0403 38.1074C30.0403 37.5792 30.1173 37.1524 30.2257 37.1524H34.9425C35.0404 37.1524 35.1279 37.5827 35.1279 38.1074C35.1279 38.6322 35.0509 39.066 34.9425 39.066H30.2257ZM37.7452 39.066C37.6472 39.066 37.5598 38.6357 37.5598 38.1074C37.5598 37.5792 37.6367 37.1524 37.7452 37.1524H42.462C42.5599 37.1524 42.6474 37.5792 42.6474 38.1039C42.175 38.3978 41.7202 38.7196 41.2863 39.066H37.7452ZM22.7167 44.5512C22.6188 44.5512 22.5313 44.1209 22.5313 43.5927C22.5313 43.0645 22.6083 42.6342 22.7167 42.6342H27.4335C27.5315 42.6342 27.6189 43.0645 27.6189 43.5927C27.6189 44.1209 27.5419 44.5512 27.4335 44.5512H22.7167ZM30.2362 44.5512C30.1383 44.5512 30.0508 44.1209 30.0508 43.5927C30.0508 43.0645 30.1278 42.6342 30.2362 42.6342H34.953C35.0509 42.6342 35.1384 43.0645 35.1384 43.5927C35.1384 44.1209 35.0614 44.5512 34.953 44.5512H30.2362ZM22.7272 50.04C22.6293 50.04 22.5418 49.6097 22.5418 49.0815C22.5418 48.5532 22.6188 48.1229 22.7272 48.1229H27.444C27.5419 48.1229 27.6294 48.5532 27.6294 49.0815C27.6294 49.6097 27.5524 50.04 27.444 50.04H22.7272ZM30.2467 50.04C30.1488 50.04 30.0613 49.6097 30.0613 49.0815C30.0613 48.5532 30.1383 48.1229 30.2467 48.1229H34.9635C35.0614 48.1229 35.1489 48.5532 35.1489 49.0815C35.1489 49.6097 35.0719 50.04 34.9635 50.04H30.2467ZM26.8491 20.4168C26.8491 19.6367 27.6189 19 28.5777 19C29.5364 19 30.3062 19.6332 30.3062 20.4168V26.6157C30.3062 27.3958 29.5329 28.0325 28.5777 28.0325C27.6224 28.0325 26.8491 27.3993 26.8491 26.6157V20.4168ZM19.9035 32.5522H52.8227V25.4158C52.8227 25.1709 52.7247 24.9575 52.5673 24.8001C52.4098 24.6427 52.1859 24.5447 51.9514 24.5447H48.7953C48.2669 24.5447 47.8365 24.1144 47.8365 23.5862C47.8365 23.058 48.2669 22.6277 48.7953 22.6277H51.9514C52.7247 22.6277 53.4175 22.939 53.9249 23.4463C54.4323 23.9535 54.7437 24.6462 54.7437 25.4193V36.7501C54.1138 36.5332 53.4665 36.3583 52.8017 36.2289V34.4588H19.9035V52.94C19.9035 53.1849 20.0015 53.3983 20.1589 53.5557C20.3164 53.7131 20.5403 53.8111 20.7748 53.8111H36.4191C36.5975 54.4758 36.8215 55.1229 37.0909 55.7456H20.7923C20.0225 55.7456 19.3261 55.4343 18.8188 54.927C18.3114 54.4233 18 53.7306 18 52.9575V25.4228C18 24.6532 18.3114 23.957 18.8188 23.4498C19.3261 22.9425 20.019 22.6312 20.7923 22.6312H24.1619C24.6902 22.6312 25.1206 23.0615 25.1206 23.5897C25.1206 24.1179 24.6902 24.5482 24.1619 24.5482H20.7923C20.5473 24.5482 20.3339 24.6462 20.1764 24.8036C20.019 24.961 19.921 25.1849 19.921 25.4193V32.5557H19.9035V32.5522ZM33.0705 24.5447C32.5421 24.5447 32.1117 24.1144 32.1117 23.5862C32.1117 23.058 32.5421 22.6277 33.0705 22.6277H39.4948C40.0231 22.6277 40.4535 23.058 40.4535 23.5862C40.4535 24.1144 40.0231 24.5447 39.4948 24.5447H33.0705Z" fill="#97E11B"/>
</g>
<defs>
<clipPath id="clip0_982_2954">
<rect width="43" height="42" fill="white" transform="translate(18 19)"/>
</clipPath>
</defs>
</svg>
