<svg width="56" height="88" viewBox="0 0 56 88" fill="none" xmlns="http://www.w3.org/2000/svg">
<path fill-rule="evenodd" clip-rule="evenodd" d="M33.8117 0.525323C34.6279 1.08467 35.1159 2.01052 35.1159 3.00002V17.2633L53.7904 22.3632C55.095 22.7195 56 23.9048 56 25.2572V56V59H53H36.913C35.2561 59 33.913 57.6569 33.913 56C33.913 54.3432 35.2561 53 36.913 53H50V27.5478L31.3255 22.4478C30.0208 22.0915 29.1159 20.9063 29.1159 19.5538V7.37782L6 16.3236V53H21.0303L27.3701 44.8259H21.5757C20.4195 44.8259 19.3663 44.1615 18.8683 43.1181C18.3703 42.0747 18.5161 40.838 19.2433 39.9391L29.1532 27.6885C30.1952 26.4004 32.0842 26.2008 33.3724 27.2429C34.6605 28.2849 34.86 30.1739 33.818 31.462L27.8612 38.8259H33.4935C34.6386 38.8259 35.6838 39.4777 36.1875 40.506C36.6913 41.5343 36.5658 42.7596 35.8641 43.6645L25.0957 57.5483C24.5717 58.4163 23.6204 58.9973 22.5333 59C22.51 59.0003 22.4866 59.0003 22.4633 59H3H0V56V14.2677V12.2119L1.91726 11.4699L31.0331 0.202216C31.9559 -0.154904 32.9955 -0.0340209 33.8117 0.525323ZM13 64C11.3431 64 10 65.3431 10 67C10 68.6569 11.3431 70 13 70H43C44.6569 70 46 68.6569 46 67C46 65.3431 44.6569 64 43 64H13ZM27.589 82.9931C24.5984 82.9931 22.2357 81.4668 21.1528 79.5L27.3973 79.5H34.0253C32.9423 81.4668 30.5797 82.9931 27.589 82.9931ZM19.6454 74.5C17.5517 74.5 15.1145 76.3435 15.735 79.1679C16.883 84.3939 21.9317 87.9931 27.589 87.9931C33.2464 87.9931 38.2951 84.3939 39.4431 79.1679C40.0634 76.3442 37.6275 74.5 35.533 74.5H27.3973L19.6454 74.5Z" fill="#97E11B"/>
</svg>
