<svg width="80" height="80" viewBox="0 0 80 80" fill="none" xmlns="http://www.w3.org/2000/svg">
<path fill-rule="evenodd" clip-rule="evenodd" d="M40 80C62.0914 80 80 62.0914 80 40C80 17.9086 62.0914 0 40 0C17.9086 0 0 17.9086 0 40C0 62.0914 17.9086 80 40 80Z" fill="#E7FCF0"/>
<path fill-rule="evenodd" clip-rule="evenodd" d="M53.705 29.8076L50.9514 32.3456C50.5799 32.6871 50.0992 32.8587 49.6205 32.8587C49.1188 32.8587 48.619 32.6706 48.2437 32.3C47.5103 31.5769 47.5294 30.4193 48.2916 29.72L51.0452 27.1838C51.8054 26.4845 53.0233 26.5028 53.7509 27.2276C54.4862 27.9507 54.4652 29.1083 53.705 29.8076ZM31.7143 32.3C31.339 32.6706 30.8392 32.8587 30.3375 32.8587C29.8588 32.8587 29.3782 32.6889 29.0067 32.3474L26.2511 29.8095C25.4909 29.1083 25.4699 27.9507 26.2052 27.2276C26.9405 26.5028 28.1507 26.4809 28.9128 27.182L31.6684 29.7182C32.4286 30.4193 32.4497 31.5769 31.7143 32.3ZM28.4897 39.9103C28.4897 40.92 27.6318 41.7362 26.5748 41.7362H22.745C21.688 41.7362 20.8301 40.92 20.8301 39.9103C20.8301 38.9006 21.688 38.0844 22.745 38.0844H26.5748C27.6318 38.0844 28.4897 38.9006 28.4897 39.9103ZM59.1279 39.9103C59.1279 40.92 58.272 41.7362 57.2131 41.7362H53.3833C52.3243 41.7362 51.4684 40.92 51.4684 39.9103C51.4684 38.9006 52.3243 38.0844 53.3833 38.0844H57.2131C58.272 38.0844 59.1279 38.9006 59.1279 39.9103ZM38.0641 27.129V23.4773C38.0641 22.4675 38.922 21.6514 39.979 21.6514C41.036 21.6514 41.8939 22.4675 41.8939 23.4773V27.129C41.8939 28.1388 41.036 28.9549 39.979 28.9549C38.922 28.9549 38.0641 28.1388 38.0641 27.129ZM42.8533 44.6448C42.2597 44.9717 41.8939 45.576 41.8939 46.2279V54.5174H38.0641V46.2279C38.0641 45.576 37.6984 44.9717 37.1048 44.6448C35.3335 43.6753 34.2343 41.8603 34.2343 39.9103C34.2343 36.8903 36.8118 34.4326 39.979 34.4326C43.1462 34.4326 45.7237 36.8903 45.7237 39.9103C45.7237 41.8603 44.6245 43.6753 42.8533 44.6448ZM39.979 30.7808C34.6997 30.7808 30.4045 34.8763 30.4045 39.9103C30.4045 42.7934 31.8465 45.5012 34.2343 47.2065V54.5174C34.2343 56.5314 35.952 58.1692 38.0641 58.1692H41.8939C44.006 58.1692 45.7237 56.5314 45.7237 54.5174V47.2065C48.1097 45.5012 49.5535 42.7934 49.5535 39.9103C49.5535 34.8763 45.2584 30.7808 39.979 30.7808Z" fill="#97E11B"/>
</svg>
