<svg width="26" height="24" viewBox="0 0 26 24" fill="none" xmlns="http://www.w3.org/2000/svg">
<path fill-rule="evenodd" clip-rule="evenodd" d="M20.583 20.8889C20.583 21.5022 20.0642 22 19.4223 22C18.7804 22 18.2616 21.5022 18.2616 20.8889C18.2616 17.8256 15.6581 15.3333 12.458 15.3333C9.25792 15.3333 6.65444 17.8256 6.65444 20.8889C6.65444 21.5022 6.1356 22 5.49372 22C4.85185 22 4.33301 21.5022 4.33301 20.8889C4.33301 16.6 7.97881 13.1111 12.458 13.1111C16.9372 13.1111 20.583 16.6 20.583 20.8889ZM12.458 4.22222C13.7383 4.22222 14.7794 5.21889 14.7794 6.44444C14.7794 7.67 13.7383 8.66667 12.458 8.66667C11.1777 8.66667 10.1366 7.67 10.1366 6.44444C10.1366 5.21889 11.1777 4.22222 12.458 4.22222ZM12.458 10.8889C15.0185 10.8889 17.1009 8.89556 17.1009 6.44444C17.1009 3.99333 15.0185 2 12.458 2C9.89747 2 7.81515 3.99333 7.81515 6.44444C7.81515 8.89556 9.89747 10.8889 12.458 10.8889Z" fill="#9C9C9C"/>
</svg>
