<svg width="32" height="32" viewBox="0 0 32 32" fill="none" xmlns="http://www.w3.org/2000/svg">
<path fill-rule="evenodd" clip-rule="evenodd" d="M24.9453 19.0591C24.4253 18.5364 23.58 18.5338 23.06 19.0551C22.5373 19.5751 22.5347 20.4191 23.0547 20.9404L23.4453 21.3338H21.3333C18.392 21.3338 16 18.9404 16 16.0004C16 13.0591 18.392 10.6671 21.3333 10.6671H23.4507L23.06 11.0551C22.5373 11.5751 22.5347 12.4191 23.0547 12.9404C23.3147 13.2018 23.6573 13.3338 24 13.3338C24.34 13.3338 24.6813 13.2031 24.94 12.9444L27.6067 10.2898C27.8587 10.0404 27.9987 9.70178 28 9.34845C28.0013 8.99378 27.8613 8.65511 27.612 8.40445L24.9453 5.72578C24.4253 5.20311 23.58 5.20045 23.06 5.72178C22.5373 6.24178 22.5347 7.08578 23.0547 7.60711L23.4453 8.00045H21.3333C18.552 8.00045 16.1 9.42711 14.6667 11.5871C13.2333 9.42711 10.7813 8.00045 8 8.00045H5.33333C4.596 8.00045 4 8.59645 4 9.33378C4 10.0698 4.596 10.6671 5.33333 10.6671H8C10.9413 10.6671 13.3333 13.0591 13.3333 16.0004C13.3333 18.9404 10.9413 21.3338 8 21.3338H5.33333C4.596 21.3338 4 21.9298 4 22.6671C4 23.4031 4.596 24.0004 5.33333 24.0004H8C10.7813 24.0004 13.2333 22.5724 14.6667 20.4124C16.1 22.5724 18.552 24.0004 21.3333 24.0004H23.4507L23.06 24.3884C22.5373 24.9084 22.5347 25.7524 23.0547 26.2738C23.3147 26.5351 23.6573 26.6671 24 26.6671C24.34 26.6671 24.6813 26.5364 24.94 26.2778L27.6067 23.6231C27.8587 23.3738 27.9987 23.0351 28 22.6818C28.0013 22.3271 27.8613 21.9884 27.612 21.7378L24.9453 19.0591Z" fill="#9C9C9C"/>
</svg>
