<svg width="286" height="201" viewBox="0 0 286 201" fill="none" xmlns="http://www.w3.org/2000/svg">
<g style="mix-blend-mode:multiply" opacity="0.22">
<path d="M0.623047 111.152V114.552C0.623047 116.582 1.70591 118.473 3.45158 119.498L138.138 198.462C143.946 201.865 151.183 201.842 156.963 198.396L282.61 123.446C284.351 122.406 285.43 120.515 285.438 118.48L285.496 109.818L0.623047 111.152Z" fill="#231F20"/>
</g>
<path d="M21.0859 104.672L23.3056 103.67V75.6381L21.0859 75.1934V104.672Z" fill="#97E11B"/>
<path d="M16.7969 101.969L21.0898 104.672V76.338L16.7969 75.29V101.969Z" fill="#22B573"/>
<path d="M37.2979 95.0349L39.5175 94.0334V66.0013L37.2979 65.5566V95.0349Z" fill="#97E11B"/>
<path d="M33.0088 92.3319L37.3017 95.0349V66.7013L33.0088 65.6533V92.3319Z" fill="#22B573"/>
<path d="M53.6406 85.8592L55.8603 84.8576V56.8294L53.6406 56.3809V85.8592Z" fill="#97E11B"/>
<path d="M49.3516 83.16L53.6483 85.8592V57.5294L49.3516 56.4814V83.16Z" fill="#22B573"/>
<path d="M69.8535 76.2996L72.0693 75.298V47.266L69.8535 46.8213V76.2996Z" fill="#97E11B"/>
<path d="M65.5645 73.5965L69.8574 76.2996V47.9659L65.5645 46.918V73.5965Z" fill="#22B573"/>
<path d="M86.1387 66.9334L88.3583 65.9357V37.9037L86.1387 37.4551V66.9334Z" fill="#97E11B"/>
<path d="M81.8496 64.2342L86.1425 66.9334V38.6036L81.8496 37.5557V64.2342Z" fill="#22B573"/>
<path d="M102.389 57.4822L104.608 56.4806V28.4486L102.389 28.0039V57.4822Z" fill="#97E11B"/>
<path d="M98.0996 54.7831L102.396 57.4822V29.1525L98.0996 28.1045V54.7831Z" fill="#22B573"/>
<path d="M119.299 48.3328L121.519 47.3351V19.3031L119.299 18.8545V48.3328Z" fill="#97E11B"/>
<path d="M115.01 45.6337L119.307 48.3328V20.003L115.01 18.9551V45.6337Z" fill="#22B573"/>
<path d="M4.78906 114.119L7.00873 113.117V85.0853L4.78906 84.6406V114.119Z" fill="#97E11B"/>
<path d="M121.426 20.0922C121.684 17.5322 122.693 15.6606 124.277 14.7402L122.027 16.055C120.636 16.8671 119.657 18.3868 119.264 20.4828C119.942 20.4557 120.666 20.3358 121.426 20.0922Z" fill="#97E11B"/>
<path d="M281.08 103.554C286.965 106.961 286.965 112.479 281.15 115.871L159.083 187.391C153.245 190.798 143.777 190.798 137.892 187.391L8.16899 111.594C5.37128 109.974 5.35586 107.386 8.1343 105.762L141.322 27.7607C144.081 26.152 148.555 26.1404 151.357 27.7607L281.076 103.554H281.08Z" fill="#7EAD21"/>
<path d="M281.149 115.871L159.083 187.392C153.244 190.799 143.776 190.799 137.892 187.392L8.1683 111.594C6.76174 110.782 6.05654 109.719 6.06039 108.659C6.06039 110.303 6.05268 111.946 6.04883 113.594C6.04883 114.649 6.75018 115.713 8.16445 116.532L137.884 192.322C143.765 195.729 153.229 195.729 159.075 192.322L281.145 120.802C284.035 119.116 285.488 116.9 285.496 114.692C285.496 113.044 285.507 111.397 285.511 109.754C285.507 111.969 284.055 114.181 281.16 115.871H281.149Z" fill="#7EAD21"/>
<path d="M18.3996 108.72L158.027 26.7084L148.223 20.9697L17.0586 97.9582L18.3996 108.72Z" fill="#E6E7E9"/>
<path d="M272.409 98.001L148.378 170.666C144.678 172.82 138.667 172.809 134.967 170.666L13.737 99.7953C12.8314 99.2694 12.527 98.728 12.527 98.2369L12.5 108.106C12.5 108.593 12.8006 109.138 13.71 109.66L134.94 180.535C138.64 182.677 144.651 182.689 148.351 180.535L272.382 107.87C274.201 106.806 275.107 105.418 275.111 104.026C275.118 100.731 275.126 97.4481 275.138 94.1572C275.138 95.5532 274.228 96.9453 272.409 98.0049V98.001Z" fill="#E6E7E9"/>
<path d="M272.336 90.2205L151.113 19.3496C149.568 18.4563 147.086 18.4409 145.557 19.3342L13.7213 96.5508C13.2088 96.8486 11.3013 98.3838 13.7367 99.7952L134.967 170.666C138.666 172.808 144.678 172.82 148.377 170.666L272.409 98.0009C276.081 95.8586 276.035 92.3628 272.336 90.2205ZM31.7214 98.8942C29.6598 100.093 26.2994 100.108 24.2031 98.8942C22.126 97.6916 22.1414 95.7349 24.2031 94.5322C26.2648 93.3335 29.6212 93.318 31.7022 94.5168C33.7985 95.731 33.7831 97.6877 31.7214 98.8904V98.8942ZM47.9566 89.4239C45.8988 90.6265 42.5385 90.642 40.4383 89.4239C38.3612 88.2174 38.3804 86.2645 40.4383 85.0619C42.5231 83.8438 45.8641 83.8438 47.9374 85.0464C50.0376 86.2607 50.0453 88.1981 47.9566 89.4162V89.4239ZM64.1956 79.9574C62.134 81.1601 58.8006 81.1601 56.7004 79.942C54.6233 78.7393 54.6118 76.8058 56.6773 75.6032C58.7621 74.3812 62.0993 74.3812 64.1725 75.5877C66.2727 76.8058 66.2881 78.7432 64.1956 79.9613V79.9574ZM80.4578 70.4716C78.373 71.6897 75.0358 71.6897 72.9433 70.4716C70.8624 69.2729 70.8585 67.3316 72.9356 66.1174C74.9973 64.9109 78.3383 64.9109 80.4154 66.1174C82.5079 67.3355 82.5233 69.2767 80.4578 70.4755V70.4716ZM96.693 61.0013C94.6082 62.2194 91.2748 62.2233 89.1746 61.0013C87.0975 59.8025 87.0898 57.8613 89.1746 56.6432C91.2363 55.4367 94.5966 55.4251 96.6737 56.6277C98.7701 57.8458 98.7624 59.7948 96.693 60.9974V61.0013ZM112.932 51.5348C110.87 52.7375 107.51 52.7529 105.414 51.5348C103.34 50.3361 103.352 48.3793 105.414 47.1728C107.475 45.9741 110.832 45.9586 112.913 47.1612C115.009 48.3755 114.994 50.3283 112.932 51.531V51.5348ZM129.167 42.0684C127.109 43.2671 123.749 43.2826 121.649 42.0684C119.576 40.8657 119.591 38.9129 121.649 37.7064C123.711 36.5076 127.071 36.4921 129.148 37.6948C131.248 38.909 131.233 40.8619 129.167 42.0645V42.0684ZM146.154 33.3869C144.096 34.5857 140.736 34.6011 138.635 33.3869C136.562 32.1843 136.578 30.2314 138.635 29.0249C140.697 27.8261 144.057 27.8107 146.135 29.0133C148.235 30.2275 148.219 32.1804 146.154 33.383V33.3869Z" fill="#F5F5F5"/>
<path d="M14.7934 77.378C15.8455 77.989 16.8705 78.7392 17.8647 79.5706C18.1692 79.8258 18.4543 80.1313 18.7511 80.4059C19.4139 81.0169 20.0806 81.6395 20.7048 82.3317C20.9746 82.6449 21.2328 82.9813 21.5025 83.3062C22.254 84.211 22.9553 85.1546 23.6182 86.1446C23.8686 86.5235 24.1268 86.9025 24.3658 87.2931C25.1056 88.515 25.7954 89.7757 26.3773 91.0673C26.439 91.1988 26.5199 91.3302 26.5777 91.4656C26.6278 91.5816 26.6625 91.6976 26.7126 91.8136C27.1095 92.7572 27.4602 93.7162 27.7646 94.6752C27.8687 95.0116 27.9573 95.3519 28.0575 95.6884C28.2694 96.4734 28.4467 97.2545 28.597 98.0318C28.6548 98.3566 28.7242 98.6814 28.7743 99.0024C28.8051 99.2228 28.7974 99.4355 28.8244 99.6598C29.5488 99.5902 30.3234 99.3968 31.1365 99.0991C31.0941 98.6273 31.0941 98.171 31.0209 97.6953C30.9747 97.3705 30.9014 97.0457 30.8514 96.717C30.7049 95.9397 30.5276 95.1586 30.308 94.3774C30.2194 94.0371 30.1269 93.7007 30.0151 93.3643C29.7222 92.4285 29.3793 91.5004 28.9901 90.5762C28.9284 90.4292 28.886 90.2823 28.8244 90.1353C28.8128 90.1121 28.8089 90.0889 28.8012 90.0696C28.7589 89.9806 28.7049 89.9033 28.6702 89.8182C28.0691 88.4918 27.3716 87.2119 26.6124 85.9667C26.3773 85.5838 26.1268 85.2126 25.8841 84.8375C25.2174 83.8398 24.5083 82.8924 23.753 81.9836C23.5835 81.7748 23.437 81.5235 23.2598 81.3224C23.1634 81.2141 23.0555 81.1329 22.9592 81.0208C22.3426 80.3363 21.6914 79.7176 21.0247 79.1104C20.7164 78.8282 20.4274 78.5188 20.1152 78.2558C19.1287 77.4283 18.0998 76.682 17.0439 76.0671C13.0709 73.7662 9.46392 73.5535 6.86275 75.0733L4.6084 76.3842C7.21343 74.8683 10.8127 75.0771 14.7934 77.3819V77.378Z" fill="#97E11B"/>
<path d="M6.95874 85.518C7.22078 82.958 8.23042 81.0864 9.8104 80.166L7.5599 81.4808C6.16875 82.2929 5.18994 83.8126 4.79688 85.9085C5.47511 85.8815 6.19958 85.7616 6.95874 85.518Z" fill="#97E11B"/>
<path d="M4.79681 85.9089C5.71396 81.0326 9.8373 79.3234 14.7738 82.1811C20.1726 85.3095 24.558 92.7922 24.8085 99.1302C25.6601 99.4551 27.0744 99.8224 28.8278 99.6523C27.8374 91.0946 21.9568 81.5237 14.7969 77.3782C7.13208 72.935 0.896972 76.3187 0.503906 84.8377C1.22453 85.2592 2.77752 85.9708 4.80066 85.9089H4.79681Z" fill="#22B573"/>
<path d="M31.0864 67.9422C32.1423 68.5571 33.1673 69.3034 34.1616 70.131C34.4699 70.3862 34.7473 70.6878 35.0479 70.9662C35.7107 71.5772 36.3774 72.2037 36.9978 72.8959C37.2676 73.2052 37.5296 73.5417 37.8032 73.8665C38.5547 74.7714 39.256 75.7149 39.915 76.7088C40.1655 77.0839 40.4198 77.4628 40.6587 77.8534C41.4025 79.0754 42.0884 80.336 42.6742 81.6276C42.7358 81.763 42.8129 81.8944 42.8745 82.0298C42.9246 82.1458 42.9593 82.2618 43.0133 82.3778C43.4102 83.3214 43.7609 84.2804 44.0614 85.2433C44.1655 85.5797 44.2541 85.9123 44.3543 86.2564C44.5663 87.0376 44.7435 87.8187 44.8938 88.5998C44.9516 88.9247 45.0171 89.2456 45.0711 89.5666C45.1019 89.7909 45.0942 90.0075 45.1173 90.224C45.8418 90.1583 46.6202 89.9649 47.4333 89.6672C47.3871 89.1992 47.3871 88.7391 47.3177 88.2673C47.2715 87.9386 47.1983 87.6138 47.1443 87.2889C47.0017 86.5078 46.8245 85.7267 46.6048 84.9455C46.5123 84.6091 46.4237 84.2727 46.3119 83.9324C46.0191 83.0004 45.6761 82.0685 45.2869 81.1481C45.2252 81.0012 45.1828 80.8542 45.1173 80.7073C45.1058 80.6879 45.1058 80.6647 45.0981 80.6415C45.0518 80.5564 45.0017 80.4791 44.9632 80.3902C44.362 79.0676 43.6684 77.7838 42.9054 76.5425C42.6703 76.1558 42.4198 75.7884 42.177 75.4133C41.5104 74.4156 40.8052 73.4682 40.0499 72.5594C39.8764 72.3468 39.7339 72.0993 39.5566 71.8943C39.4641 71.7822 39.3524 71.701 39.2522 71.5966C38.6356 70.9044 37.9843 70.2934 37.3177 69.6785C37.0132 69.3962 36.7204 69.0907 36.4082 68.8239C35.4178 67.9964 34.3889 67.25 33.3369 66.639C29.36 64.3343 25.753 64.1216 23.1557 65.6413L20.9014 66.9523C23.5064 65.4364 27.1056 65.6491 31.0826 67.95L31.0864 67.9422Z" fill="#97E11B"/>
<path d="M23.2556 76.0786C23.5177 73.5186 24.5234 71.6547 26.1073 70.7344L23.8568 72.0453C22.4656 72.8535 21.483 74.3771 21.0938 76.4692C21.772 76.4498 22.4926 76.33 23.2556 76.0786Z" fill="#97E11B"/>
<path d="M21.0975 76.4687C22.0108 71.5963 26.1342 69.8909 31.0706 72.7525C36.4695 75.8771 40.8587 83.3598 41.1054 89.694C41.957 90.0188 43.3713 90.39 45.1208 90.216C44.1343 81.6583 38.2537 72.0951 31.0899 67.942C23.4251 63.5026 17.1938 66.8824 16.8008 75.4014C17.5214 75.8268 19.0744 76.5384 21.0975 76.4687Z" fill="#22B573"/>
<path d="M47.2975 58.4836C48.3533 59.0946 49.3784 59.8487 50.3726 60.6762C50.677 60.9315 50.9622 61.2369 51.2589 61.5115C51.9218 62.1225 52.5884 62.7451 53.2127 63.4373C53.4825 63.7505 53.7407 64.0869 54.0143 64.4118C54.7657 65.3128 55.4671 66.2563 56.126 67.2502C56.3765 67.6291 56.6308 68.0042 56.8698 68.3948C57.6135 69.6168 58.2994 70.8774 58.8852 72.169C58.9469 72.3005 59.0239 72.4358 59.0817 72.5673C59.1318 72.6833 59.1704 72.8032 59.2205 72.9153C59.6174 73.8589 59.9681 74.8179 60.2686 75.7769C60.3765 76.1172 60.4652 76.4537 60.5654 76.7901C60.7773 77.579 60.9546 78.3562 61.1049 79.1335C61.1627 79.4622 61.232 79.7832 61.2821 80.1041C61.313 80.3284 61.3053 80.5372 61.3361 80.7615C62.0567 80.6919 62.8351 80.4986 63.6482 80.2008C63.602 79.729 63.602 79.2727 63.5326 78.7932C63.4864 78.4684 63.4132 78.1474 63.3592 77.8149C63.2166 77.0376 63.0394 76.2603 62.8159 75.4792C62.7234 75.135 62.6347 74.8025 62.5268 74.466C62.234 73.5302 61.891 72.6021 61.5018 71.6779C61.4401 71.531 61.3977 71.384 61.3361 71.2371C61.3207 71.2177 61.3168 71.1907 61.313 71.1713C61.2667 71.0824 61.2128 71.005 61.1781 70.92C60.5769 69.5936 59.8833 68.3175 59.1203 67.0684C58.889 66.6856 58.6386 66.3143 58.3919 65.9431C57.7253 64.9415 57.0201 63.9941 56.2648 63.0854C56.0913 62.8766 55.9488 62.6291 55.7715 62.4203C55.6752 62.312 55.5673 62.2308 55.4709 62.1225C54.8505 61.4342 54.1992 60.8154 53.5364 60.2083C53.2281 59.926 52.9391 59.6167 52.627 59.3576C51.6366 58.5262 50.6077 57.7798 49.5557 57.165C45.5787 54.8602 41.9718 54.6514 39.3745 56.1711L37.1201 57.4859C39.7251 55.9662 43.3244 56.1789 47.3013 58.4798L47.2975 58.4836Z" fill="#97E11B"/>
<path d="M39.4675 66.6235C39.7257 64.0635 40.7354 62.1919 42.3192 61.2754L40.0687 62.5863C38.6775 63.3984 37.6949 64.9181 37.3057 67.014C37.9839 66.987 38.7045 66.871 39.4675 66.6235Z" fill="#97E11B"/>
<path d="M37.3055 67.0143C38.2188 62.138 42.3422 60.4288 47.2786 63.2903C52.6775 66.4188 57.0629 73.9015 57.3134 80.2395C58.165 80.5643 59.5793 80.9317 61.3288 80.7616C60.3423 72.2038 54.4617 62.633 47.2979 58.4875C39.6331 54.0443 33.4019 57.4279 33.0088 65.9509C33.7256 66.3724 35.2824 67.08 37.3055 67.0182V67.0143Z" fill="#22B573"/>
<path d="M63.6334 49.0913C64.6893 49.7062 65.7143 50.4525 66.7124 51.2839C67.0168 51.5391 67.2982 51.8408 67.5987 52.1192C68.2615 52.7302 68.9282 53.3528 69.5525 54.0488C69.8223 54.3582 70.0804 54.6985 70.3502 55.0195C71.1016 55.9244 71.803 56.8679 72.4658 57.8579C72.7163 58.2368 72.9706 58.6119 73.2096 59.0025C73.9533 60.2245 74.6392 61.4851 75.225 62.7767C75.2866 62.9121 75.3676 63.0397 75.4254 63.1827C75.4755 63.2949 75.5102 63.4109 75.5641 63.5269C75.961 64.4705 76.3117 65.4256 76.6123 66.3924C76.7163 66.7288 76.805 67.0614 76.9052 67.4055C77.1171 68.1867 77.2944 68.9678 77.4447 69.7451C77.5025 70.0699 77.5718 70.3947 77.6219 70.7118C77.6528 70.9361 77.645 71.1527 77.672 71.3692C78.3926 71.3035 79.1711 71.1101 79.9842 70.8124C79.9418 70.3445 79.9418 69.8843 79.8686 69.4087C79.8223 69.08 79.753 68.759 79.6952 68.4303C79.5526 67.6492 79.3753 66.8719 79.1557 66.0907C79.0632 65.7505 78.9745 65.4179 78.8628 65.0776C78.5699 64.1456 78.2269 63.2137 77.8377 62.2933C77.7761 62.1464 77.7337 61.9994 77.672 61.8525C77.6605 61.8332 77.6566 61.8061 77.6489 61.7868C77.6027 61.6978 77.5526 61.6243 77.514 61.5354C76.9167 60.2129 76.2192 58.929 75.4601 57.6877C75.225 57.301 74.9784 56.9336 74.7279 56.5585C74.0612 55.5609 73.356 54.6134 72.6007 53.7047C72.4273 53.492 72.2847 53.2445 72.1074 53.0396C72.0111 52.9274 71.9032 52.8462 71.8069 52.7379C71.1864 52.0457 70.539 51.4309 69.8724 50.8237C69.5679 50.5415 69.275 50.2321 68.9629 49.9691C67.9725 49.1416 66.9475 48.3953 65.8916 47.7881C61.9185 45.4834 58.3116 45.2668 55.7104 46.7904L53.4561 48.1014C56.0611 46.5855 59.6603 46.7982 63.6372 49.0991L63.6334 49.0913Z" fill="#97E11B"/>
<path d="M55.8074 57.2241C56.0694 54.6641 57.0752 52.8002 58.659 51.8799L56.4085 53.1908C55.0174 53.999 54.0386 55.5226 53.6455 57.6147C54.3237 57.5953 55.0482 57.4755 55.8074 57.2241Z" fill="#97E11B"/>
<path d="M53.6415 57.614C54.5586 52.7416 58.6781 51.0362 63.6146 53.8939C69.0135 57.0185 73.4027 64.505 73.6493 70.8392C74.501 71.164 75.9152 71.5353 77.6648 71.3613C76.6782 62.8035 70.7977 53.2365 63.6338 49.0872C55.969 44.644 49.7378 48.0277 49.3447 56.5467C50.0653 56.9721 51.6183 57.6836 53.6415 57.614Z" fill="#22B573"/>
<path d="M79.8461 39.5665C80.9019 40.1775 81.927 40.9316 82.9212 41.7591C83.2257 42.0144 83.507 42.3199 83.8076 42.5944C84.4704 43.2054 85.137 43.828 85.7613 44.5202C86.0311 44.8334 86.2893 45.1699 86.5629 45.4985C87.3143 46.3996 88.0157 47.3431 88.6746 48.3369C88.9251 48.7159 89.1795 49.0949 89.4184 49.4854C90.1621 50.7074 90.8519 51.9681 91.4338 53.2597C91.4955 53.3911 91.5725 53.5187 91.6303 53.658C91.6843 53.774 91.719 53.89 91.7691 54.006C92.166 54.9495 92.5167 55.9086 92.8173 56.8676C92.9213 57.204 93.0099 57.5443 93.1101 57.8769C93.3221 58.6657 93.4993 59.443 93.6496 60.2203C93.7074 60.549 93.7729 60.87 93.8269 61.1909C93.8577 61.4113 93.85 61.624 93.8808 61.8483C94.6015 61.7787 95.3799 61.5854 96.193 61.2876C96.1506 60.8158 96.1506 60.3595 96.0774 59.8839C96.0312 59.559 95.9618 59.2342 95.904 58.9055C95.7614 58.1282 95.5841 57.3471 95.3606 56.566C95.2758 56.2257 95.1834 55.8892 95.0716 55.5528C94.7787 54.617 94.4358 53.685 94.0465 52.7647C93.9849 52.6177 93.9425 52.4669 93.8808 52.3238C93.8654 52.3006 93.8616 52.2774 93.8539 52.2581C93.8076 52.1692 93.7537 52.0957 93.719 52.0067C93.1217 50.6804 92.4242 49.4042 91.6612 48.1552C91.4261 47.7724 91.1795 47.4011 90.929 47.0299C90.2623 46.0283 89.5571 45.0848 88.8018 44.1722C88.6284 43.9633 88.4858 43.7158 88.3086 43.5109C88.2161 43.4026 88.1043 43.3214 88.0041 43.217C87.3837 42.5287 86.7363 41.9099 86.0696 41.3028C85.7652 41.0205 85.4723 40.7112 85.164 40.4482C84.1736 39.6207 83.1486 38.8743 82.0889 38.2595C78.112 35.9586 74.5088 35.7459 71.9115 37.2657L69.6533 38.5766C72.2583 37.0607 75.8576 37.2695 79.8345 39.5743L79.8461 39.5665Z" fill="#97E11B"/>
<path d="M72.0193 47.7065C72.2775 45.1465 73.2871 43.2749 74.8709 42.3584L72.6204 43.6693C71.2293 44.4814 70.2466 46.0011 69.8574 48.0971C70.5357 48.07 71.2563 47.954 72.0193 47.7065Z" fill="#97E11B"/>
<path d="M69.8572 48.0973C70.7705 43.2209 74.8939 41.5079 79.8303 44.3695C85.2292 47.4979 89.6185 54.9806 89.8612 61.3186C90.7129 61.6434 92.1271 62.0108 93.8767 61.8406C92.8902 53.2829 87.0096 43.7121 79.8457 39.5666C72.181 35.1234 65.9497 38.507 65.5566 47.03C66.2734 47.4515 67.8303 48.1591 69.8534 48.0973H69.8572Z" fill="#22B573"/>
<path d="M96.1187 30.1112C97.1746 30.726 98.1997 31.4724 99.1978 32.3038C99.5022 32.559 99.7835 32.8606 100.084 33.139C100.747 33.75 101.414 34.3726 102.038 35.0687C102.304 35.3742 102.566 35.7145 102.839 36.0393C103.591 36.9403 104.292 37.8878 104.955 38.8777C105.206 39.2528 105.46 39.6318 105.699 40.0223C106.443 41.2443 107.128 42.5088 107.714 43.7966C107.776 43.9319 107.857 44.0634 107.911 44.1987C107.965 44.3147 107.999 44.4346 108.049 44.5468C108.446 45.4903 108.797 46.4493 109.101 47.4084C109.206 47.7487 109.294 48.0812 109.394 48.4254C109.606 49.2065 109.784 49.9877 109.934 50.7649C109.996 51.0898 110.061 51.4146 110.111 51.7317C110.142 51.956 110.134 52.1687 110.165 52.3852C110.886 52.3156 111.664 52.1261 112.477 51.8284C112.435 51.3605 112.435 50.9003 112.362 50.4285C112.315 50.0998 112.242 49.775 112.188 49.4463C112.046 48.669 111.868 47.8917 111.649 47.1106C111.56 46.7703 111.468 46.4377 111.356 46.0936C111.063 45.1616 110.72 44.2297 110.331 43.3093C110.269 43.1624 110.227 43.0154 110.165 42.8723C110.15 42.853 110.15 42.8259 110.142 42.8027C110.1 42.7177 110.046 42.6403 110.007 42.5552C109.41 41.2327 108.712 39.9489 107.953 38.7076C107.714 38.317 107.468 37.9535 107.217 37.5784C106.55 36.5807 105.845 35.6294 105.09 34.7245C104.916 34.5118 104.774 34.2644 104.597 34.0633C104.504 33.9511 104.392 33.8699 104.296 33.7616C103.676 33.0694 103.028 32.4585 102.365 31.8475C102.057 31.5652 101.768 31.2597 101.456 30.9929C100.466 30.1653 99.4367 29.419 98.3808 28.808C94.4077 26.5032 90.8008 26.2906 88.1996 27.8103L85.9414 29.1212C88.5464 27.6015 92.1495 27.818 96.1226 30.1189L96.1187 30.1112Z" fill="#97E11B"/>
<path d="M88.2927 38.2475C88.5509 35.6876 89.5606 33.8237 91.1444 32.9033L88.8939 34.2142C87.5027 35.0225 86.5201 36.5461 86.1309 38.6381C86.8091 38.6188 87.5336 38.4989 88.2927 38.2475Z" fill="#97E11B"/>
<path d="M86.1268 38.6337C87.0401 33.7613 91.1635 32.0559 96.0999 34.9137C101.499 38.0382 105.888 45.5248 106.135 51.859C106.986 52.1838 108.401 52.5512 110.15 52.381C109.164 43.8233 103.283 34.2563 96.1192 30.1031C88.4544 25.6638 82.2231 29.0435 81.8301 37.5626C82.5507 37.988 84.1037 38.6995 86.1268 38.6299V38.6337Z" fill="#22B573"/>
<path d="M112.393 20.6525C113.449 21.2635 114.474 22.0137 115.468 22.8451C115.773 23.1003 116.054 23.4058 116.355 23.6804C117.017 24.2913 117.684 24.9178 118.308 25.6061C118.578 25.9194 118.836 26.2558 119.106 26.5845C119.858 27.4855 120.559 28.4291 121.222 29.4229C121.472 29.8018 121.73 30.1808 121.965 30.5714C122.709 31.7934 123.399 33.054 123.981 34.3456C124.042 34.4771 124.123 34.6086 124.181 34.7439C124.231 34.8599 124.266 34.9759 124.316 35.0919C124.713 36.0355 125.064 36.9945 125.364 37.9535C125.468 38.2938 125.557 38.6303 125.657 38.9667C125.869 39.7556 126.046 40.5328 126.197 41.3101C126.254 41.6349 126.324 41.9598 126.374 42.2807C126.405 42.5011 126.397 42.7138 126.424 42.9381C127.145 42.8685 127.923 42.6752 128.736 42.3774C128.69 41.9056 128.69 41.4493 128.621 40.9737C128.574 40.6488 128.501 40.324 128.447 39.9953C128.305 39.218 128.127 38.4408 127.908 37.6558C127.815 37.3155 127.727 36.979 127.615 36.6426C127.322 35.7068 126.979 34.7748 126.59 33.8545C126.528 33.7075 126.486 33.5567 126.424 33.4136C126.409 33.3904 126.409 33.3672 126.401 33.3479C126.355 33.2628 126.305 33.1816 126.266 33.0965C125.669 31.7702 124.971 30.494 124.208 29.245C123.977 28.8622 123.727 28.4909 123.48 28.1158C122.813 27.1181 122.108 26.1707 121.353 25.262C121.179 25.0531 121.037 24.8018 120.859 24.6007C120.767 24.4924 120.655 24.4112 120.559 24.2991C119.946 23.6146 119.291 22.9959 118.624 22.3888C118.32 22.1065 118.027 21.7932 117.719 21.5342C116.732 20.7066 115.703 19.9603 114.644 19.3454C110.671 17.0445 107.064 16.8319 104.466 18.3516L102.212 19.6625C104.817 18.1466 108.416 18.3555 112.393 20.6602V20.6525Z" fill="#97E11B"/>
<path d="M104.566 28.7924C104.824 26.2324 105.834 24.3608 107.418 23.4404L105.167 24.7552C103.776 25.5673 102.797 27.087 102.404 29.183C103.083 29.1559 103.807 29.036 104.566 28.7924Z" fill="#97E11B"/>
<path d="M102.4 29.1832C103.314 24.3069 107.437 22.5938 112.373 25.4554C117.772 28.5838 122.158 36.0665 122.408 42.4045C123.26 42.7294 124.674 43.0967 126.424 42.9266C125.437 34.3689 119.556 24.798 112.393 20.6526C104.732 16.2093 98.4966 19.593 98.1035 28.1159C98.8241 28.5335 100.377 29.2451 102.4 29.1832Z" fill="#22B573"/>
<path d="M0.5 111.42L4.79675 114.119V85.7892L0.5 84.7412V111.42Z" fill="#22B573"/>
<path d="M238.243 79.7797L226.008 72.6914L105.957 142.959L105.479 143.237L117.553 150.233L117.715 150.326L238.24 79.7797H238.243ZM236.328 79.7797L138.2 137.263L127.88 131.285L226.008 73.8012L236.328 79.7797ZM137.245 137.82L117.715 149.208L107.399 143.23L126.929 131.841L137.245 137.82Z" fill="#C1C1C1"/>
<path d="M252.475 88.0941L240.24 81.0059C235.881 83.5465 124.528 148.744 120.189 151.273L119.711 151.552L120.189 151.826L131.784 158.547L131.946 158.64L252.475 88.0941ZM250.56 88.0941L152.432 145.577L142.112 139.599L240.24 82.1157L250.556 88.0941H250.56ZM151.476 146.134L131.946 157.523L121.63 151.544L141.16 140.156L151.476 146.134Z" fill="#C1C1C1"/>
<path d="M266.706 96.4086L254.471 89.3203C250.113 91.8609 138.759 157.059 134.42 159.588L133.942 159.866L134.42 160.141L146.02 166.862L146.181 166.955L266.71 96.4086H266.706ZM264.791 96.4086L166.663 153.892L156.343 147.913L254.471 90.4302L264.787 96.4086H264.791ZM165.708 154.449L146.178 165.837L135.861 159.859L155.391 148.47L165.708 154.449Z" fill="#C1C1C1"/>
<path d="M181.319 46.5238L169.083 39.4355L51.6799 108.156L49.0286 109.703L48.5508 109.982L49.0286 110.256L60.6279 116.977L60.7859 117.07L181.319 46.5238ZM179.403 46.5238L81.2755 104.007L70.9556 98.0286L169.087 40.5492L179.403 46.5277V46.5238ZM80.3159 104.564L60.7859 115.952L50.4699 109.974L69.9999 98.5855L80.3159 104.564Z" fill="#C1C1C1"/>
<path d="M165.349 37.6566L153.114 30.5684L32.5889 101.111L44.824 108.199L165.349 37.6566Z" fill="#C1C1C1"/>
<path d="M195.549 54.8382L183.314 47.75L65.9143 116.471L63.263 118.018L62.7852 118.296L63.263 118.571L74.8623 125.291L75.0242 125.384L195.549 54.8382ZM193.634 54.8382L95.506 112.321L85.1861 106.343L183.318 48.8637L193.634 54.8421V54.8382ZM94.5503 112.878L75.0203 124.267L64.7042 118.288L84.2342 106.9L94.5503 112.878Z" fill="#C1C1C1"/>
<path d="M209.781 63.1517L197.545 56.0635L80.1457 124.784L77.4944 126.331L77.0166 126.61L77.4944 126.884L89.0938 133.605L89.2518 133.698L209.781 63.1517ZM207.865 63.1517L109.737 120.635L99.4175 114.657L197.545 57.1733L207.861 63.1517H207.865ZM108.782 121.192L89.2518 132.58L78.9357 126.602L98.4657 115.213L108.782 121.192Z" fill="#C1C1C1"/>
<path d="M224.012 71.4662L211.777 64.3779L94.3772 133.099L91.7259 134.646L91.248 134.924L91.7259 135.199L103.325 141.919L103.487 142.012L224.016 71.4662H224.012ZM222.097 71.4662L123.969 128.949L113.649 122.971L211.777 65.4878L222.093 71.4662H222.097ZM123.013 129.506L103.483 140.895L93.1671 134.916L112.697 123.528L123.013 129.506Z" fill="#C1C1C1"/>
<path d="M94.4778 121.052L92.7283 122.073L97.9885 125.12L96.7476 125.843L91.4836 122.796L89.7456 123.809L88.7822 123.252L93.5144 120.495L94.4778 121.052Z" fill="#C1C1C1"/>
<path d="M85.8651 115.464L84.6242 116.188L82.7668 115.112L80.1387 113.45L80.1078 113.461L83.0635 117.1L82.2273 117.584L75.9883 115.886L75.9652 115.905L78.8169 117.417L80.6743 118.492L79.4335 119.215L73.2061 115.607L74.8246 114.664L80.9903 116.404L81.0173 116.389L78.0153 112.804L79.6377 111.856L85.8651 115.464Z" fill="#C1C1C1"/>
<path d="M68.5274 107.061C69.0592 107.371 69.275 107.734 69.1633 108.156C69.0515 108.577 68.6546 108.991 67.9725 109.389C67.2981 109.784 66.5351 110.024 65.6835 110.116C64.855 110.205 64.1382 110.07 63.5293 109.718C63.5139 109.71 63.4985 109.699 63.4831 109.691L63.4677 109.672L64.6738 108.968C65.0438 109.184 65.4292 109.273 65.8261 109.242C66.223 109.212 66.6238 109.08 67.0245 108.844C67.3637 108.647 67.5486 108.457 67.5872 108.272C67.6295 108.086 67.5294 107.928 67.2981 107.792C67.0554 107.653 66.7818 107.591 66.4658 107.607C66.1498 107.622 65.7182 107.715 65.171 107.885C64.2191 108.191 63.4099 108.369 62.7393 108.419C62.065 108.469 61.4754 108.345 60.9667 108.051C60.4542 107.754 60.2576 107.386 60.3655 106.945C60.4734 106.509 60.8626 106.091 61.5332 105.7C62.2153 105.302 62.9513 105.085 63.7374 105.047C64.5043 105.008 65.1401 105.136 65.6527 105.433C65.6681 105.445 65.6873 105.453 65.7028 105.464L65.7182 105.488L64.5197 106.188C64.2307 106.017 63.8993 105.944 63.5293 105.948C63.1632 105.956 62.8049 106.06 62.458 106.261C62.1266 106.454 61.9416 106.648 61.9108 106.837C61.8761 107.027 61.9763 107.189 62.2075 107.324C62.4195 107.448 62.6892 107.491 63.0168 107.456C63.3482 107.425 63.8261 107.309 64.4503 107.12C65.3251 106.833 66.092 106.675 66.7586 106.655C67.4215 106.632 68.0111 106.768 68.5197 107.065L68.5274 107.061Z" fill="#C1C1C1"/>
<path d="M109.692 128.454L114.474 132.905L113.322 133.574L108.077 131.857L108.054 131.873L111.029 134.916L109.877 135.585L102.2 132.824L103.418 132.112L108.566 134.065L108.597 134.054L105.491 130.906L106.404 130.372L111.842 132.163L111.865 132.151L108.482 129.162L109.692 128.454Z" fill="#C1C1C1"/>
<path d="M122.817 137.997L121.067 139.018L126.331 142.069L125.09 142.792L119.826 139.741L118.084 140.758L117.121 140.201L121.853 137.44L122.817 137.997Z" fill="#C1C1C1"/>
<path d="M137.045 146.026L134.02 147.789L135.734 148.783L138.324 147.275L139.287 147.832L136.698 149.34L139.284 150.84L138.039 151.563L131.812 147.955L136.077 145.469L137.045 146.026Z" fill="#C1C1C1"/>
<path d="M154.678 156.85C155.21 157.159 155.422 157.522 155.31 157.944C155.203 158.365 154.802 158.779 154.12 159.178C153.445 159.572 152.682 159.812 151.831 159.905C151.002 159.993 150.285 159.858 149.676 159.506C149.661 159.498 149.646 159.491 149.63 159.479L149.615 159.46L150.821 158.756C151.191 158.973 151.576 159.062 151.973 159.031C152.37 159 152.771 158.868 153.172 158.632C153.511 158.435 153.696 158.246 153.734 158.06C153.773 157.874 153.677 157.712 153.441 157.577C153.203 157.437 152.925 157.376 152.613 157.391C152.297 157.406 151.865 157.499 151.318 157.669C150.366 157.975 149.557 158.153 148.887 158.203C148.216 158.253 147.626 158.133 147.114 157.836C146.605 157.542 146.405 157.171 146.513 156.734C146.617 156.297 147.01 155.879 147.68 155.488C148.362 155.09 149.095 154.874 149.885 154.835C150.651 154.796 151.287 154.924 151.8 155.222C151.815 155.233 151.835 155.241 151.85 155.253L151.865 155.272L150.667 155.972C150.378 155.805 150.046 155.728 149.68 155.736C149.314 155.744 148.952 155.848 148.609 156.049C148.278 156.242 148.097 156.436 148.062 156.629C148.027 156.819 148.127 156.981 148.359 157.116C148.571 157.24 148.84 157.283 149.168 157.248C149.495 157.213 149.973 157.101 150.601 156.911C151.472 156.625 152.243 156.467 152.91 156.444C153.572 156.42 154.158 156.556 154.671 156.853L154.678 156.85Z" fill="#C1C1C1"/>
<path d="M129.252 11.9523C130.308 12.5633 131.333 13.3135 132.328 14.1449C132.632 14.4001 132.913 14.7056 133.214 14.9802C133.877 15.5911 134.543 16.2176 135.168 16.9059C135.437 17.2192 135.696 17.5556 135.965 17.8843C136.717 18.7853 137.418 19.7289 138.081 20.7227C138.332 21.1017 138.59 21.4806 138.825 21.8712C139.569 23.0932 140.258 24.3538 140.84 25.6454C140.902 25.7769 140.983 25.9084 141.041 26.0437C141.091 26.1597 141.125 26.2757 141.175 26.3917C141.572 27.3353 141.923 28.2943 142.224 29.2533C142.328 29.5936 142.416 29.9301 142.517 30.2665C142.728 31.0554 142.906 31.8326 143.056 32.6099C143.114 32.9347 143.183 33.2596 143.233 33.5805C143.264 33.8009 143.256 34.0136 143.283 34.2379C144.004 34.1683 144.782 33.975 145.596 33.6772C145.549 33.2054 145.549 32.7491 145.48 32.2735C145.434 31.9486 145.36 31.6238 145.307 31.2951C145.164 30.5178 144.987 29.7406 144.767 28.9556C144.675 28.6153 144.586 28.2788 144.474 27.9424C144.181 27.0066 143.838 26.0746 143.449 25.1543C143.387 25.0073 143.345 24.8565 143.283 24.7134C143.268 24.6902 143.268 24.667 143.26 24.6477C143.214 24.5626 143.164 24.4814 143.125 24.3964C142.528 23.07 141.831 21.7938 141.068 20.5448C140.836 20.162 140.586 19.7907 140.339 19.4156C139.673 18.4179 138.967 17.4705 138.212 16.5618C138.039 16.353 137.896 16.1016 137.719 15.9005C137.626 15.7922 137.515 15.711 137.418 15.5989C136.806 14.9144 136.15 14.2957 135.484 13.6886C135.179 13.4063 134.886 13.0931 134.578 12.834C133.592 12.0064 132.563 11.2601 131.503 10.6452C127.53 8.34435 123.923 8.13166 121.326 9.6514L119.071 10.9623C121.676 9.44645 125.276 9.65527 129.252 11.96V11.9523Z" fill="#97E11B"/>
<path d="M119.26 20.483C120.173 15.6067 124.296 13.8936 129.233 16.7552C134.632 19.8836 139.017 27.3663 139.267 33.7043C140.119 34.0292 141.533 34.3965 143.283 34.2264C142.296 25.6687 136.416 16.0978 129.252 11.9524C121.591 7.50915 115.356 10.8928 114.963 19.4157C115.684 19.8333 117.237 20.5449 119.26 20.483Z" fill="#22B573"/>
<g style="mix-blend-mode:multiply" opacity="0.22">
<path d="M220.786 90.233C218.112 88.7442 187.064 70.6504 187.064 70.6504L163.237 83.8833C160.196 83.0249 156.844 82.2244 153.722 81.5438L137.672 72.7927C136.366 72.0348 134.74 72.0309 133.433 72.785L99.8878 91.9267C98.9436 92.4759 98.9398 93.837 99.8839 94.3862L122.643 107.074L110.134 114.402C110.134 114.402 105.317 116.718 109.487 119.383C113.66 122.047 141.202 137.194 141.202 137.194C141.202 137.194 143.395 138.381 146.088 136.854C151.418 133.845 220.274 93.2802 220.274 93.2802C220.274 93.2802 223.808 91.9151 220.775 90.2253L220.786 90.233Z" fill="#231F20"/>
</g>
<path d="M130.288 74.6838L132.149 73.601L140.045 48.04L138.184 49.1228L130.288 74.6838Z" fill="#242523"/>
<path d="M138.185 49.1228L140.046 48.04C140.096 47.7616 140.227 47.5682 140.404 47.46L138.543 48.5427C138.366 48.6471 138.239 48.8444 138.185 49.1228Z" fill="#242523"/>
<path d="M159.904 92.348L161.761 91.2652L156.281 57.0537L154.42 58.1365L159.904 92.348Z" fill="#292B28"/>
<path d="M139.644 46.1525C140.076 45.9011 140.677 45.9437 141.329 46.3188L153.972 53.4959C155.105 54.1572 156.08 55.6537 156.284 57.0497L154.423 58.1325C154.219 56.7365 153.248 55.2361 152.111 54.5787L139.467 47.3977C138.816 47.0187 138.219 46.9761 137.783 47.2314L139.644 46.1486V46.1525Z" fill="#474A45"/>
<path d="M139.468 47.4011C138.331 46.7398 137.352 47.1072 137.136 48.275L129.24 73.8244L130.285 74.6829L138.184 49.1219C138.304 48.4722 138.84 48.275 139.46 48.6346L152.104 55.8118C152.724 56.1715 153.26 56.9913 153.371 57.7647L158.851 91.9878L159.899 92.3436L154.42 58.132C154.215 56.736 153.244 55.2356 152.107 54.5782L139.464 47.3972L139.468 47.4011Z" fill="#373935"/>
<path d="M126.743 23.546L128.605 22.4632L127.557 22.1074L125.695 23.1902L126.743 23.546Z" fill="#3C3E3A"/>
<path d="M128.604 22.4629L132.485 46.7748C132.597 47.5444 133.129 48.3681 133.749 48.7277L131.888 49.8105C131.267 49.4508 130.735 48.6271 130.624 47.8576L126.743 23.5457L128.604 22.4629Z" fill="#292B28"/>
<path d="M148.809 59.3348L150.67 58.2482L133.749 48.7314L131.888 49.8103L148.809 59.3348Z" fill="#292B28"/>
<path d="M148.802 60.5654L150.667 59.4826L150.671 58.249L148.809 59.3357L148.802 60.5654Z" fill="#262825"/>
<path d="M126.743 23.5462L125.695 23.1904L129.572 47.4869C129.776 48.8829 130.747 50.3833 131.884 51.0446L148.805 60.5652V59.3316L131.892 49.811C131.271 49.4514 130.74 48.6277 130.628 47.8582L126.747 23.5462H126.743Z" fill="#373935"/>
<path d="M124.508 73.2832L143.113 62.4555C143.113 62.4555 143.078 62.4362 143.059 62.4246C142.805 62.2892 142.577 62.2854 142.412 62.382L123.807 73.2097C123.972 73.113 124.2 73.1208 124.454 73.2522C124.473 73.26 124.489 73.2716 124.508 73.2832Z" fill="#474A45"/>
<path d="M125.198 75.6068L143.803 64.783C143.992 64.6747 144.103 64.4311 144.088 64.0908C144.061 63.4721 143.633 62.7528 143.117 62.4551L124.512 73.2827C125.028 73.5805 125.46 74.2998 125.483 74.9185C125.498 75.2588 125.386 75.4985 125.202 75.6068H125.198Z" fill="#474A45"/>
<path d="M124.508 73.2835C124.508 73.2835 124.474 73.2641 124.454 73.2525C123.915 72.9702 123.495 73.2603 123.522 73.9022C123.545 74.5209 123.976 75.2402 124.497 75.5418C124.512 75.5495 124.531 75.5611 124.551 75.5727C125.09 75.8512 125.506 75.565 125.479 74.9231C125.452 74.3044 125.025 73.5851 124.508 73.2873V73.2835Z" fill="#373935"/>
<path d="M112.358 60.2712C111.695 59.8845 111.155 60.1938 111.151 60.9595C111.151 61.729 111.687 62.6648 112.354 63.0477L128.874 72.9743C129.256 73.1948 130.192 73.7941 131.479 74.5985C132.412 75.1824 133.548 76.3966 137.541 76.2574C142.188 75.7586 155.888 70.0973 157.279 61.903C157.279 61.903 131.367 70.9596 129.945 70.1359L112.358 60.2673V60.2712Z" fill="#373935"/>
<path d="M112.538 66.7633L131.143 55.9357C131.143 55.9357 131.109 55.9163 131.093 55.9047C130.839 55.7733 130.612 55.7655 130.446 55.8622L111.841 66.6899C112.007 66.5932 112.234 66.5971 112.488 66.7324C112.507 66.744 112.523 66.7517 112.542 66.7633H112.538Z" fill="#474A45"/>
<path d="M113.225 69.0912L131.83 58.2635C132.019 58.1552 132.127 57.9155 132.115 57.5752C132.088 56.9526 131.657 56.2372 131.14 55.9355L112.535 66.7632C113.052 67.061 113.483 67.7802 113.51 68.399C113.522 68.7393 113.414 68.979 113.225 69.0912Z" fill="#474A45"/>
<path d="M112.539 66.763C112.539 66.763 112.504 66.7436 112.485 66.732C111.941 66.4497 111.525 66.7398 111.552 67.3817C111.579 68.0004 112.007 68.7158 112.527 69.0174C112.546 69.029 112.562 69.0368 112.581 69.0484C113.12 69.3268 113.537 69.0406 113.513 68.3948C113.487 67.7761 113.059 67.0568 112.539 66.7591V66.763Z" fill="#373935"/>
<path d="M124.901 52.9739C128.708 50.9205 131.24 47.3396 137.687 47.2275C144.851 47.1076 151.876 52.6645 156.273 56.199C158.45 57.9507 158.662 59.3893 157.533 61.783C154.119 68.9988 139.429 75.7622 134.404 74.1149C132.184 73.3879 129.926 71.8449 128.504 71.0213C128.504 71.0213 111.024 66.4234 111.294 59.687C111.444 55.8858 121.098 55.0311 124.905 52.9778L124.901 52.9739Z" fill="#585659"/>
<path d="M102.184 36.0792L104.045 34.9964L102.997 34.6406L101.136 35.7234L102.184 36.0792Z" fill="#3C3E3A"/>
<path d="M104.045 34.9961L107.925 59.3081C108.037 60.0776 108.569 60.9013 109.189 61.2609L126.11 70.7815L124.249 71.8643L107.328 62.3437C106.708 61.984 106.176 61.1604 106.06 60.3908L102.18 36.0827L104.041 35L104.045 34.9961Z" fill="#292B28"/>
<path d="M124.246 73.0986L126.104 72.0119L126.111 70.7822L124.25 71.865L124.246 73.0986Z" fill="#262825"/>
<path d="M102.184 36.0794L101.136 35.7197L105.012 60.0201C105.217 61.4161 106.188 62.9126 107.321 63.5739L124.242 73.0945V71.8648L107.328 62.3442C106.708 61.9845 106.176 61.1609 106.061 60.3913L102.18 36.0832L102.184 36.0794Z" fill="#373935"/>
<path d="M102.631 90.2912L104.492 89.2084L112.392 63.6436L110.531 64.7263L102.631 90.2912Z" fill="#242523"/>
<path d="M110.531 64.7263L112.393 63.6436C112.443 63.3651 112.57 63.1718 112.751 63.0674L110.89 64.1501C110.712 64.2546 110.581 64.4518 110.531 64.7302V64.7263Z" fill="#242523"/>
<path d="M132.246 107.952L134.108 106.869L128.624 72.6572L126.767 73.7439L132.246 107.952Z" fill="#292B28"/>
<path d="M111.988 61.7563C112.424 61.5088 113.021 61.5475 113.672 61.9226L126.316 69.1036C127.453 69.7649 128.424 71.2614 128.624 72.6574L126.763 73.7402C126.563 72.3403 125.588 70.8438 124.455 70.1864L111.811 63.0053C111.16 62.6302 110.562 62.5877 110.127 62.8391L111.988 61.7563Z" fill="#474A45"/>
<path d="M111.81 63.0097C110.674 62.3523 109.695 62.7158 109.483 63.8836L101.587 89.4292L102.631 90.2915L110.531 64.7305C110.651 64.0809 111.186 63.8836 111.807 64.2433L124.45 71.4243C125.071 71.784 125.606 72.6038 125.718 73.3772L131.198 107.604L132.246 107.956L126.766 73.7484C126.566 72.3485 125.591 70.852 124.458 70.1946L111.814 63.0136L111.81 63.0097Z" fill="#373935"/>
<path d="M125.102 19.625C120.955 20.6111 118.188 21.7905 111.575 24.6715C105.73 27.2198 102.007 31.2802 101.533 33.0784C101.059 34.8765 101.101 38.469 101.101 38.469C101.101 38.469 100.878 44.8728 103.506 53.2526C104.069 55.0508 106.084 54.9 107.213 54.3586C110.231 52.9123 119.938 50.9633 122.481 48.7939C123.005 48.3454 132.971 39.9501 132.84 39.1225L106.046 52.8659L103.934 34.9693C103.818 34.2501 125.66 19.946 125.102 19.625Z" fill="#373935"/>
<path d="M107.518 53.4689C111.83 51.9105 116.624 52.1696 121.98 49.2306C124.87 47.6452 126.57 45.294 128.708 43.1246C130.477 41.3265 132.481 40.6691 132.832 39.1416C133.148 37.5097 130.608 24.7215 130.608 24.7215C130.608 24.7215 129.945 21.5583 128.45 20.4716C126.955 19.385 124.986 19.006 122.416 20.0424C116.073 22.6023 107.995 27.1036 106.292 28.5382C103.903 30.5529 103.737 32.0263 103.309 32.9273C102.916 33.7548 103.267 38.3682 103.267 38.3682C103.267 38.3682 104.435 49.656 105.622 52.9546C105.834 53.5385 106.204 53.9407 107.514 53.465L107.518 53.4689Z" fill="#3F3D40"/>
<g style="mix-blend-mode:multiply" opacity="0.21">
<path d="M117.414 55.3951C117.414 55.3951 113.969 60.0703 121.287 64.5676C128.608 69.0688 135.371 73.9374 137.476 74.3048C139.58 74.6721 150.535 70.2986 155.321 65.4338C155.915 64.8306 129.795 52.0771 129.795 52.0771L117.41 55.3951H117.414Z" fill="#1C1C1C"/>
</g>
<path d="M173.525 89.2188L179.22 92.8421C179.22 92.8421 182.688 93.6542 183.548 94.3619C183.737 94.5166 183.887 94.9187 183.987 95.4563C184.053 95.8004 184.234 97.1771 184.029 97.4594C183.517 98.1786 182.993 98.604 181.367 99.215C178.457 100.317 175.147 98.8438 175.147 98.8438C174.604 98.5924 166.291 96.0595 166.291 96.0595C166.291 96.0595 165.894 95.9319 165.682 95.2242L165.17 93.3371L173.525 89.2188Z" fill="#F5F5F5"/>
<path d="M173.375 88.1132L176.049 89.8147L179.07 91.7366C179.07 91.7366 181.937 93.4729 182.962 93.8944C183.429 94.0917 183.799 94.606 183.906 95.1435C183.972 95.4876 183.93 95.8395 183.725 96.1218C183.213 96.845 182.049 97.5101 181.063 97.8775C178.145 98.9718 174.847 97.5062 174.847 97.5062C174.369 97.2819 168.084 95.3755 165.814 94.5596C165.517 94.4552 165.348 94.0375 165.348 94.0375C165.348 94.0375 164.912 92.5758 164.773 91.9532C164.349 90.0274 164.77 88.79 164.77 88.79L173.378 88.1094L173.375 88.1132Z" fill="#059B97"/>
<path d="M174.723 94.0296C174.846 94.1262 175.02 94.0566 175.12 93.9406C175.482 93.492 176.284 92.5562 176.974 92.0999C177.498 91.7519 177.976 91.7132 178.268 91.7403C178.423 91.7519 178.596 91.7093 178.646 91.5585C178.688 91.4425 178.665 91.2994 178.542 91.2724C178.214 91.2066 177.494 91.1525 176.7 91.6784C175.895 92.2082 174.997 93.2871 174.661 93.7086C174.581 93.8091 174.623 93.9522 174.727 94.0296H174.723Z" fill="#F5F5F5"/>
<path d="M172.685 92.6185C172.812 92.7151 172.978 92.6455 173.078 92.5256C173.44 92.0771 174.246 91.1413 174.936 90.6888C175.464 90.3408 175.934 90.306 176.227 90.333C176.381 90.3447 176.554 90.2982 176.604 90.1513C176.647 90.0392 176.627 89.8922 176.508 89.8651C176.18 89.7994 175.456 89.7453 174.662 90.2712C173.857 90.801 172.955 91.876 172.623 92.2975C172.542 92.398 172.589 92.5411 172.689 92.6185H172.685Z" fill="#F5F5F5"/>
<path d="M173.787 93.311C173.91 93.4076 174.083 93.338 174.184 93.2182C174.546 92.7696 175.347 91.8338 176.033 91.3813C176.561 91.0333 177.039 91.0024 177.328 91.0217C177.482 91.0372 177.652 90.9908 177.706 90.8438C177.748 90.7317 177.725 90.5847 177.609 90.5576C177.282 90.4919 176.561 90.4378 175.764 90.9598C174.958 91.4935 174.056 92.5685 173.725 92.99C173.644 93.0905 173.69 93.2336 173.79 93.311H173.787Z" fill="#F5F5F5"/>
<path d="M155.359 97.0195L160.931 101.714C160.931 101.714 164.527 103.083 165.34 103.965C165.521 104.162 165.621 104.61 165.656 105.198C165.679 105.577 165.671 107.074 165.417 107.348C164.762 108.044 164.141 108.42 162.315 108.841C159.043 109.599 155.717 107.546 155.717 107.546C155.174 107.198 146.642 103.288 146.642 103.288C146.642 103.288 146.238 103.091 146.11 102.31L145.833 100.218L155.359 97.0195Z" fill="#F5F5F5"/>
<path d="M155.359 95.8171L157.976 98.0213L160.932 100.516C160.932 100.516 163.749 102.785 164.785 103.385C165.255 103.659 165.579 104.263 165.614 104.854C165.633 105.229 165.537 105.601 165.278 105.875C164.627 106.571 163.282 107.117 162.176 107.372C158.901 108.118 155.579 106.076 155.579 106.076C155.097 105.771 148.654 102.82 146.342 101.625C146.037 101.471 145.918 100.999 145.918 100.999C145.918 100.999 145.66 99.3747 145.602 98.6903C145.425 96.5673 146.049 95.3066 146.049 95.3066L155.355 95.8209L155.359 95.8171Z" fill="#059B97"/>
<path d="M155.953 102.34C156.072 102.464 156.265 102.414 156.392 102.301C156.843 101.876 157.837 100.987 158.639 100.604C159.247 100.306 159.764 100.337 160.072 100.407C160.234 100.441 160.423 100.418 160.5 100.267C160.562 100.151 160.562 99.9929 160.431 99.9503C160.091 99.8305 159.325 99.668 158.4 100.117C157.463 100.569 156.346 101.59 155.93 101.992C155.829 102.089 155.856 102.247 155.953 102.344V102.34Z" fill="#F5F5F5"/>
<path d="M119.525 45.584L131.275 52.417C131.275 52.417 150.531 63.9833 151.822 72.3167C153.047 80.2286 155.159 85.1591 156.974 97.0154C157.179 98.3495 150.261 100.824 145.556 97.2319C145.128 96.9071 142.785 80.3988 142.747 79.9889C142.747 79.9889 141.822 74.4784 140.076 72.6106C138.781 71.2262 126.011 64.7953 126.011 64.7953C126.011 64.7953 119.502 60.8278 119.425 54.3118C119.406 52.6336 119.529 45.584 119.529 45.584H119.525Z" fill="#374C63"/>
<path d="M127.915 23.4026C127.915 23.4026 125.256 20.9393 126.994 18.7815C128.732 16.6237 133.926 14.5703 138.427 14.5703C142.928 14.5703 145.106 16.9872 145.106 16.9872L140.909 27.0956L127.915 23.3987V23.4026Z" fill="#97E11B"/>
<path d="M151.91 44.0796C151.009 43.1245 144.369 31.9681 144.369 31.9681C144.369 31.9681 142.777 18.1164 145.517 17.5171C148.219 16.9293 149.641 21.2023 151.348 26.5891C151.752 27.8536 157.12 39.8607 157.61 41.0247C158.885 44.0603 158.107 47.5599 158.107 47.5599C158.107 47.5599 153.76 46.0479 151.914 44.0835L151.91 44.0796Z" fill="#006837"/>
<path d="M133.444 43.1591L140.913 46.8135L159.132 56.8059C159.132 56.8059 162.797 59.594 164.932 64.8183C167.279 70.5608 173.479 87.974 173.479 87.974C173.872 89.2038 173.052 90.5456 171.21 91.551C167.529 93.5658 165.194 92.3128 165.194 92.3128C164.797 92.0963 164.473 91.8797 164.223 91.2262L156.115 69.5593C156.115 69.5593 154.651 67.5446 153.549 66.6629C150.658 64.3427 139.402 58.1632 139.402 58.1632C139.402 58.1632 134.092 55.7579 133.756 51.6937C133.618 50.0231 133.448 43.1553 133.448 43.1553L133.444 43.1591Z" fill="#374C63"/>
<path d="M148.496 19.0948C149.005 22.9115 149.359 25.2704 146.997 31.6316L140.882 46.2103C140.566 47.0688 141.321 49.594 142.496 51.0673C147.159 56.9142 132.28 59.7449 128.77 60.4487C124.585 61.2878 120.569 58.7704 120.569 58.7704C116.889 56.922 118.627 48.0433 118.562 48.3565C118.562 48.3565 121.98 33.8784 124.084 28.1591C126.219 22.3663 130.219 18.4219 132.978 17.343C134.273 16.8364 148.146 16.5 148.496 19.0909V19.0948Z" fill="#22B573"/>
<path d="M151.494 53.1596C151.494 53.1596 151.933 45.6924 151.544 43.8324C151.17 42.0458 154.068 41.0017 155.91 41.6784C157.224 42.1618 157.814 42.6452 158.126 44.0528C158.427 45.3946 158.111 48.4921 158.053 49.0683C157.544 54.2153 156.689 56.8024 156.689 56.8024L151.494 53.1558V53.1596Z" fill="#006837"/>
<path d="M155.471 52.4252C155.07 53.3842 155.144 53.5002 154.273 53.129C153.968 53.0014 152.781 53.129 152.978 54.1924C153.148 55.0973 152.115 56.1182 151.76 54.7802C151.71 54.5868 151.375 53.2952 151.722 52.7345C153.371 50.0547 154.893 49.7685 155.76 50.1359C156.627 50.5033 155.868 51.4662 155.467 52.4252H155.471Z" fill="#F2CEB6"/>
<path d="M157.683 50.9254C157.683 50.9254 156.072 50.0205 155.371 50.0205C153.76 50.0205 153.128 51.3508 153.128 51.3508L152.92 51.8419L152.23 55.2178C152.23 55.2178 151.448 57.6231 151.563 58.644C151.606 59.0191 151.995 59.0384 152.35 58.7638C152.654 58.5241 153.097 56.6911 153.448 56.753C155.371 57.1049 156.739 56.5751 156.739 56.5751L158.115 53.4892C158.596 52.4335 158.666 51.4822 157.683 50.9293V50.9254Z" fill="#F2CEB6"/>
<path d="M131.814 17.8424C132.219 17.6607 132.616 17.4905 132.982 17.3475C133.483 17.1502 133.98 17.0381 136.358 16.7287L142.038 16.2686L142.335 16.5624L145.953 25.5107L142.5 30.592L141.579 28.206L138.05 22.8928L131.818 17.8424H131.814Z" fill="#20514E"/>
<path d="M143.834 22.6602C143.857 22.9657 143.21 26.3996 141.491 26.1869C137.73 25.7267 134.809 20.6222 135.633 19.2997C135.876 18.9091 140.319 15.2703 140.319 15.2703L144.258 10.0498L150.555 19.0406L143.838 22.6602H143.834Z" fill="#E0A77C"/>
<path d="M145.795 20.6572L143.672 22.61C143.672 22.61 143.441 22.8575 143.672 23.1359C144.065 23.6077 144.52 25.4446 144.223 26.5583C143.853 27.9504 143.071 29.5281 142.397 30.3402C142.331 30.4214 142.408 30.7656 142.408 30.7656C142.408 30.7656 143.957 29.126 145.722 26.8908C147.487 24.6596 147.795 20.9627 147.795 20.9627L145.799 20.6533L145.795 20.6572Z" fill="#97E11B"/>
<path d="M148.33 5.16948L142.191 5.39376L142.985 14.9337C143.093 15.6955 142.793 18.503 142.935 19.1488C143.093 19.8487 143.294 20.6066 144.43 21.3491C144.43 21.3491 147.274 23.4411 148.442 23.7544C149.205 23.9593 150.75 23.2246 150.75 23.2246C151.675 22.6059 152.558 20.9817 153.005 18.9361L155.066 9.99165L154.615 3.87402L148.326 5.17334L148.33 5.16948Z" fill="#F2CEB6"/>
<path d="M156.134 4.94556C156.076 4.92236 154.758 5.40187 155.336 5.7731C156.647 6.60065 157.645 7.62541 157.645 7.62541C157.498 7.46686 155.645 9.10261 155.105 9.82961C154.627 10.4754 153.479 11.6046 149.772 9.72133C148.712 9.18768 146.897 8.94406 145.595 11.9062C145.321 12.5365 144.824 14.3038 144.597 15.17C144.342 16.1445 144.358 15.3633 144.319 15.3788C144.103 15.4561 143.995 13.8706 143.656 12.989C143.656 12.989 143.336 11.8134 142.354 11.9874C141.175 12.1962 141.683 14.0795 141.76 14.2187L139.475 16.3958C139.375 16.4615 138.97 11.8289 138.889 11.0671C138.465 7.03375 139.055 5.08864 141.171 2.98498C142.273 1.88675 144.446 0.947061 144.581 0.881322C145.999 0.150455 148.454 -0.0467629 148.304 0.0228435C147.826 0.239397 147.498 0.745976 148.034 0.773045C148.177 0.78078 148.662 0.657035 149.19 0.626099C149.591 0.606764 151.263 0.552625 151.132 0.622232C150.427 0.985732 150.335 1.3299 150.82 1.47684C150.997 1.53485 152.901 1.24482 153.575 1.60445C153.668 1.65473 152.269 2.64468 152.535 2.67175C154.281 2.83803 155.791 3.27887 156.173 3.88213C156.234 3.97881 155.421 3.31754 154.639 3.98267C154.369 4.21083 154.862 4.09482 155.541 4.50472C155.907 4.72901 156.146 4.95329 156.146 4.95329L156.134 4.94556Z" fill="#683501"/>
<path d="M142.573 11.7202C144.084 11.5849 144.331 13.6499 144.331 13.6499L145.047 16.2563C145.047 16.2563 144.485 17.3158 143.88 17.3932C143.174 17.4898 142.689 17.1805 142.257 16.3181C142.234 16.2717 141.552 14.8796 141.521 14.8061C141.043 13.7272 141.209 11.8401 142.573 11.7202Z" fill="#F2CEB6"/>
<path d="M142.447 30.7813C142.447 30.7813 137.429 22.2739 133.645 20.6304C129.857 18.9869 127.471 21.9877 127.471 21.9877C127.471 21.9877 126.839 19.3233 129.602 17.27C132.366 15.2166 134.208 15.7038 136.05 17.0379C137.892 18.3721 140.554 22.7611 141.576 25.4332C142.739 28.4766 142.45 30.7813 142.45 30.7813H142.447Z" fill="#97E11B"/>
<path d="M153.976 100.534C154.096 100.658 154.288 100.607 154.412 100.491C154.866 100.066 155.857 99.1805 156.658 98.7938C157.271 98.4999 157.783 98.5309 158.092 98.5966C158.257 98.6314 158.446 98.6082 158.523 98.4574C158.585 98.3414 158.585 98.1828 158.458 98.1403C158.115 98.0243 157.352 97.858 156.427 98.3066C155.491 98.759 154.373 99.7799 153.953 100.182C153.853 100.279 153.88 100.437 153.976 100.534Z" fill="#F5F5F5"/>
<path d="M155.055 101.44C155.174 101.56 155.367 101.513 155.49 101.397C155.941 100.972 156.935 100.082 157.733 99.6996C158.346 99.4057 158.862 99.4366 159.167 99.5062C159.329 99.541 159.517 99.5178 159.598 99.367C159.656 99.251 159.656 99.0925 159.533 99.046C159.194 98.9262 158.427 98.7638 157.502 99.2123C156.566 99.6648 155.448 100.686 155.032 101.088C154.932 101.185 154.962 101.343 155.055 101.44Z" fill="#F5F5F5"/>
<path d="M156.212 25.0311C156.131 25.0543 156.062 25.1316 156.027 25.2553C155.958 25.5067 156.05 25.8625 156.235 26.0442C156.328 26.137 156.424 26.168 156.505 26.1486L166.998 23.4378C166.917 23.461 166.821 23.4262 166.728 23.3373C166.547 23.1555 166.455 22.7998 166.52 22.5446C166.555 22.4169 166.624 22.3396 166.705 22.3164L156.216 25.0272L156.212 25.0311Z" fill="#1A2130"/>
<path d="M161.834 23.4111C161.73 23.4382 161.641 23.5387 161.595 23.6972C161.506 24.0182 161.626 24.4668 161.857 24.7027C161.972 24.8187 162.096 24.8612 162.2 24.8342L166.315 23.7707C166.211 23.7978 166.088 23.7553 165.972 23.6392C165.741 23.4072 165.622 22.9548 165.71 22.6338C165.753 22.4714 165.841 22.3747 165.945 22.3477L161.83 23.4111H161.834Z" fill="#7492E8"/>
<path d="M156.185 25.035C156.1 25.0582 156.034 25.1316 156 25.2592C155.93 25.5106 156.023 25.8664 156.208 26.052C156.3 26.1448 156.397 26.1757 156.477 26.1564L156.936 26.0404C156.855 26.0597 156.759 26.0288 156.666 25.936C156.481 25.7504 156.393 25.3985 156.458 25.1432C156.493 25.0156 156.562 24.9383 156.643 24.9189L156.185 25.035Z" fill="#6F82D1"/>
<path d="M166.347 23.6078C166.347 23.6078 166.339 23.6078 166.335 23.6078H166.328C166.247 23.6232 166.158 23.5923 166.069 23.5033C165.888 23.3216 165.796 22.9658 165.865 22.7145C165.9 22.5791 165.977 22.5018 166.069 22.4863L166.251 22.436C166.031 22.2543 165.8 22.3316 165.719 22.6333C165.63 22.9542 165.75 23.4028 165.981 23.6387C166.193 23.8514 166.428 23.8127 166.536 23.5575L166.351 23.6039L166.347 23.6078Z" fill="#496FCE"/>
<mask id="mask0_967_2551" style="mask-type:alpha" maskUnits="userSpaceOnUse" x="166" y="22" width="2" height="2">
<path d="M167.063 23.3762C167.063 23.3762 167.059 23.3762 167.059 23.3801C166.924 23.5309 166.712 23.4342 166.581 23.1596C166.45 22.8851 166.454 22.5371 166.589 22.3862C166.654 22.3128 166.743 22.2973 166.828 22.336C166.994 22.4133 167.159 22.4868 167.325 22.5641C167.294 22.5487 167.259 22.5525 167.233 22.5835C167.182 22.6415 167.182 22.7729 167.233 22.8774C167.283 22.9818 167.364 23.0204 167.414 22.9624C167.298 23.1016 167.179 23.2409 167.063 23.3801V23.3762Z" fill="white"/>
</mask>
<g mask="url(#mask0_967_2551)">
<path d="M167.325 22.5641L166.828 22.336C166.743 22.2973 166.655 22.3089 166.589 22.3862C166.489 22.5022 166.462 22.7227 166.508 22.9431C166.524 23.0204 166.551 23.0939 166.581 23.1635C166.712 23.4381 166.924 23.5386 167.059 23.3839C167.059 23.3839 167.059 23.3839 167.063 23.38L167.414 22.9624C167.464 22.9044 167.464 22.7729 167.414 22.6724C167.387 22.6221 167.356 22.5834 167.321 22.5718L167.325 22.5641Z" fill="#1A2130"/>
</g>
<mask id="mask1_967_2551" style="mask-type:alpha" maskUnits="userSpaceOnUse" x="167" y="22" width="1" height="1">
<path d="M167.418 22.9697C167.364 23.0238 167.283 22.9852 167.233 22.8769C167.183 22.7686 167.183 22.6294 167.233 22.5714C167.26 22.5443 167.287 22.5366 167.322 22.5482C167.375 22.5675 167.429 22.5869 167.483 22.6062C167.468 22.5985 167.449 22.6062 167.433 22.6178C167.402 22.6526 167.402 22.7338 167.433 22.7957C167.46 22.8576 167.51 22.8769 167.541 22.8498C167.499 22.8885 167.46 22.931 167.422 22.9736L167.418 22.9697Z" fill="white"/>
</mask>
<g mask="url(#mask1_967_2551)">
<path d="M167.318 22.5443C167.287 22.5327 167.256 22.5404 167.229 22.5675C167.218 22.5791 167.21 22.5984 167.202 22.6178C167.187 22.6603 167.187 22.7183 167.195 22.7802C167.202 22.8111 167.21 22.8459 167.225 22.8768C167.275 22.9851 167.356 23.0238 167.41 22.9697L167.53 22.8459C167.499 22.8768 167.453 22.8536 167.422 22.7918C167.414 22.7763 167.406 22.757 167.403 22.7376C167.395 22.7028 167.399 22.6719 167.406 22.6448C167.406 22.6332 167.414 22.6216 167.422 22.6139C167.437 22.5984 167.453 22.5946 167.472 22.6023L167.31 22.5443H167.318Z" fill="#7492E8"/>
</g>
<path d="M167.541 22.669C167.572 22.7309 167.572 22.8082 167.541 22.843C167.51 22.8778 167.464 22.8546 167.433 22.7927C167.402 22.7309 167.406 22.6535 167.433 22.6149C167.464 22.5801 167.514 22.6033 167.541 22.6651V22.669ZM167.525 22.6845C167.502 22.6381 167.468 22.6226 167.444 22.6458C167.421 22.6729 167.421 22.7309 167.444 22.7773C167.464 22.8237 167.502 22.8391 167.525 22.8159C167.548 22.7889 167.548 22.7309 167.525 22.6845Z" fill="#496FCE"/>
<path d="M167.63 22.5954L167.464 22.6341C167.464 22.6341 167.453 22.638 167.445 22.6457C167.422 22.6728 167.422 22.7308 167.445 22.7772C167.46 22.812 167.487 22.8313 167.511 22.8274C167.565 22.8158 167.618 22.8042 167.672 22.7888C167.676 22.7888 167.692 22.781 167.703 22.7733C167.707 22.7733 167.711 22.7694 167.715 22.7656C167.715 22.7656 167.734 22.7385 167.734 22.7346C167.742 22.723 167.746 22.6921 167.746 22.6882C167.746 22.6882 167.738 22.6534 167.734 22.6496C167.715 22.607 167.672 22.5877 167.626 22.5954H167.63Z" fill="#454E6B"/>
<path d="M149.271 28.917C149.271 28.917 150.442 29.3772 151.193 30.0926C151.949 30.808 152.928 31.7283 152.461 32.2542C151.991 32.7801 149.479 31.3532 149.479 31.3532L149.271 28.917Z" fill="#047C76"/>
<path d="M148.978 28.8867C148.978 28.8867 154.481 24.5827 155.517 24.0259C156.751 23.3685 156.947 23.2022 158.874 23.442C160.45 23.6392 160.623 24.0143 160.843 24.8225C161.105 25.797 161.221 27.2162 161.221 27.2162C161.221 27.2162 160.2 28.7205 159.964 27.0886C159.837 26.2069 159.525 25.9555 159.525 25.9555C159.525 25.9555 159.598 26.1296 159.568 26.9223C159.525 27.9316 158.743 30.5882 158.743 30.5882C158.743 30.5882 157.637 32.0074 156.65 30.681C156.065 29.8922 154.932 30.6733 154.932 30.6733C154.932 30.6733 153.417 31.9804 152.18 31.5666C152.099 31.5395 148.646 34.7453 148.646 34.7453L148.978 28.8867Z" fill="#E8C5AC"/>
<path d="M150.03 30.9937C151.864 32.9737 152.481 32.208 152.462 32.2544C150.608 37.0959 145.001 47.2507 141.444 49.7024C137.722 52.2662 134.539 45.7967 134.539 45.7967C134.539 45.7967 130.296 39.0603 127.506 32.0649C124.743 25.1352 131.155 18.9248 134.912 25.8931C136.25 28.3719 137.822 32.382 139.683 38.3643C140.311 40.379 141.818 37.734 141.818 37.734L149.07 28.7277C149.07 28.7277 148.982 29.8646 150.03 30.9937Z" fill="#97E11B"/>
<path d="M146.563 91.3153L146.521 132.561C146.521 132.932 146.282 133.296 145.808 133.57C144.848 134.131 143.287 134.131 142.32 133.57C141.835 133.288 141.592 132.921 141.592 132.549L141.634 91.3037C141.634 91.6711 141.873 92.0384 142.359 92.3246C143.326 92.8815 144.887 92.8815 145.846 92.3246C146.324 92.0423 146.563 91.6827 146.563 91.3153Z" fill="#767D7D"/>
<path d="M217.126 50.495L217.083 91.7406C217.083 92.1119 216.844 92.4754 216.37 92.7499C215.411 93.3106 213.85 93.3106 212.883 92.7499C212.397 92.4676 212.154 92.1003 212.158 91.729L212.201 50.4834C212.201 50.8508 212.44 51.2181 212.925 51.5043C213.892 52.0611 215.453 52.0611 216.413 51.5043C216.89 51.222 217.129 50.8624 217.129 50.495H217.126Z" fill="#767D7D"/>
<path d="M186.092 40.5145L186.05 81.7602C186.05 82.1314 185.811 82.4949 185.337 82.7695C184.377 83.3302 182.817 83.3302 181.85 82.7695C181.364 82.4872 181.121 82.1198 181.125 81.7486L181.167 40.5029C181.167 40.8703 181.406 41.2377 181.892 41.5238C182.859 42.0807 184.42 42.0807 185.379 41.5238C185.857 41.2415 186.096 40.8819 186.096 40.5145H186.092Z" fill="#767D7D"/>
<mask id="mask2_967_2551" style="mask-type:alpha" maskUnits="userSpaceOnUse" x="111" y="76" width="6" height="43">
<path d="M116.077 76.2381L116.038 117.484C116.038 117.851 115.799 118.211 115.321 118.489C114.362 119.05 112.801 119.05 111.834 118.493C111.348 118.211 111.102 117.836 111.106 117.472L111.148 76.2227C111.148 76.5939 111.387 76.9613 111.876 77.2435C112.84 77.8004 114.404 77.8004 115.364 77.2435C115.842 76.9613 116.081 76.6016 116.081 76.2381H116.077Z" fill="white"/>
</mask>
<g mask="url(#mask2_967_2551)">
<path d="M116.077 76.2381L116.038 117.484C116.038 117.851 115.799 118.211 115.321 118.489C114.362 119.05 112.801 119.05 111.834 118.493C111.348 118.211 111.102 117.836 111.106 117.472L111.148 76.2227C111.148 76.5939 111.387 76.9613 111.876 77.2435C112.84 77.8004 114.404 77.8004 115.364 77.2435C115.842 76.9613 116.081 76.6016 116.081 76.2381H116.077Z" fill="#767D7D"/>
</g>
<path d="M146.1 96.0253L106.767 73.1171L181.472 28.3447L220.802 51.2491L146.1 96.0253Z" fill="#97E11B"/>
<path d="M220.802 51.249L146.1 96.0253L106.767 73.117L106.774 74.834L146.1 97.7422L220.806 52.9698L220.802 51.249Z" fill="#006837"/>
<path d="M165.646 42.9658L165.653 44.2303L165.935 44.3966L165.931 43.1321L165.646 42.9658Z" fill="#A9A9A9"/>
<path d="M163.711 44.0873L163.715 45.3518L165.653 44.2303L165.645 42.9658L163.711 44.0873Z" fill="#757575"/>
<path d="M165.931 43.1318L165.935 44.3964L167.572 45.3515L167.568 44.087L165.931 43.1318Z" fill="#8C8C8C"/>
<path d="M165.931 43.1318L165.935 44.3964L167.857 45.5139L167.854 44.2533L165.931 43.1318Z" fill="#A9A9A9"/>
<path d="M168.612 44.6943L168.616 45.9589L168.897 46.1251V44.8606L168.612 44.6943Z" fill="#A9A9A9"/>
<path d="M162.616 44.7217L162.62 45.9823L162.905 46.1486L162.901 44.888L162.616 44.7217Z" fill="#A9A9A9"/>
<path d="M163.711 44.0873L165.634 45.2087L167.568 44.0873L165.931 43.1321L165.645 42.9658L163.711 44.0873Z" fill="#DCDCDC"/>
<path d="M165.634 45.2084L165.638 46.469L167.572 45.3514L167.568 44.0869L165.634 45.2084Z" fill="#898989"/>
<path d="M163.711 44.0869L163.715 45.3514L165.638 46.469L165.634 45.2084L163.711 44.0869Z" fill="#C5C5C5"/>
<path d="M165.919 45.3753V46.6399L167.857 45.5146L167.853 44.2539L165.919 45.3753Z" fill="#626262"/>
<path d="M165.634 45.209L165.638 46.4696L165.919 46.6398V45.3753L165.634 45.209Z" fill="#8C8C8C"/>
<path d="M166.674 45.8158L166.682 47.0803L168.616 45.9589L168.612 44.6943L166.674 45.8158Z" fill="#757575"/>
<path d="M160.682 45.8431V47.1076L162.62 45.9823L162.616 44.7217L160.682 45.8431Z" fill="#757575"/>
<path d="M168.897 44.8604V46.1249L170.539 47.08L170.535 45.8155L168.897 44.8604Z" fill="#8C8C8C"/>
<path d="M162.901 44.8877L162.905 46.1483L164.543 47.1074L164.539 45.8428L162.901 44.8877Z" fill="#8C8C8C"/>
<path d="M168.897 44.8604V46.1249L170.824 47.2463L170.82 45.9818L168.897 44.8604Z" fill="#A9A9A9"/>
<path d="M162.901 44.8877L162.905 46.1483L164.824 47.2698V46.0091L162.901 44.8877Z" fill="#A9A9A9"/>
<path d="M171.345 46.2881V47.5487L171.63 47.715L171.626 46.4544L171.345 46.2881Z" fill="#A9A9A9"/>
<path d="M159.68 46.4229L159.684 47.6874L159.969 47.8498L159.965 46.5891L159.68 46.4229Z" fill="#A9A9A9"/>
<path d="M165.58 46.4502L165.588 47.7147L165.869 47.881L165.865 46.6165L165.58 46.4502Z" fill="#A9A9A9"/>
<path d="M168.597 46.9378L168.604 48.2024L170.539 47.0809L170.535 45.8164L168.597 46.9378Z" fill="#898989"/>
<path d="M166.674 45.8164L166.682 47.0809L168.604 48.2024L168.597 46.9378L166.674 45.8164Z" fill="#C5C5C5"/>
<path d="M160.682 45.8428V47.1073L162.608 48.2249L162.605 46.9642L160.682 45.8428Z" fill="#C5C5C5"/>
<path d="M162.604 46.9642L162.608 48.2249L164.543 47.1073L164.539 45.8428L162.604 46.9642Z" fill="#898989"/>
<path d="M160.682 45.8431L162.605 46.9645L164.539 45.8431L162.901 44.888L162.616 44.7217L160.682 45.8431Z" fill="#DCDCDC"/>
<path d="M168.886 47.1039V48.3684L170.824 47.2469L170.82 45.9824L168.886 47.1039Z" fill="#626262"/>
<path d="M168.597 46.9375L168.604 48.202L168.886 48.3683V47.1038L168.597 46.9375Z" fill="#8C8C8C"/>
<path d="M162.886 47.1312L162.89 48.3918L164.824 47.2704V46.0098L162.886 47.1312Z" fill="#626262"/>
<path d="M162.901 44.8877L164.539 45.8428L162.604 46.9643L162.886 47.1306L164.824 46.0091L162.901 44.8877Z" fill="#9D9D9D"/>
<path d="M162.604 46.9648L162.608 48.2255L162.89 48.3918L162.886 47.1311L162.604 46.9648Z" fill="#8C8C8C"/>
<path d="M168 42.2197V43.4842L176.628 48.5152V47.2546L168 42.2197Z" fill="#979797"/>
<path d="M169.406 47.4095L169.414 48.674L171.345 47.5487V46.2881L169.406 47.4095Z" fill="#757575"/>
<path d="M171.626 46.4541L171.63 47.7148L173.271 48.6738L173.268 47.4093L171.626 46.4541Z" fill="#8C8C8C"/>
<path d="M157.745 47.5443L157.749 48.8049L159.683 47.6874L159.68 46.4229L157.745 47.5443Z" fill="#757575"/>
<path d="M159.965 46.5889L159.969 47.8495L161.61 48.8047L161.603 47.544L159.965 46.5889Z" fill="#8C8C8C"/>
<path d="M163.646 47.5716L163.649 48.8361L165.588 47.7147L165.58 46.4502L163.646 47.5716Z" fill="#757575"/>
<path d="M165.865 46.6162L165.869 47.8807L167.511 48.8359L167.507 47.5714L165.865 46.6162Z" fill="#8C8C8C"/>
<path d="M171.626 46.4541L171.63 47.7148L173.557 48.8401L173.553 47.5755L171.626 46.4541Z" fill="#A9A9A9"/>
<path d="M159.965 46.5889L159.969 47.8495L161.892 48.971L161.888 47.7103L159.965 46.5889Z" fill="#A9A9A9"/>
<path d="M165.865 46.6162L165.869 47.8807L167.792 48.9983L167.788 47.7376L165.865 46.6162Z" fill="#A9A9A9"/>
<path d="M156.797 48.0938L156.801 49.3583L157.082 49.5207L157.078 48.26L156.797 48.0938Z" fill="#A9A9A9"/>
<path d="M162.647 48.1514L162.651 49.412L162.933 49.5783L162.929 48.3138L162.647 48.1514Z" fill="#A9A9A9"/>
<path d="M168.146 48.1396L168.15 49.4042L168.436 49.5704L168.432 48.3059L168.146 48.1396Z" fill="#A9A9A9"/>
<path d="M171.333 48.5306L171.337 49.7951L173.271 48.6737L173.268 47.4092L171.333 48.5306Z" fill="#898989"/>
<path d="M169.406 47.4092L169.414 48.6737L171.337 49.7951L171.333 48.5306L169.406 47.4092Z" fill="#C5C5C5"/>
<path d="M169.406 47.4095L171.333 48.531L173.268 47.4095L171.626 46.4544L171.345 46.2881L169.406 47.4095Z" fill="#DCDCDC"/>
<path d="M157.745 47.5449L157.749 48.8056L159.672 49.927L159.668 48.6664L157.745 47.5449Z" fill="#C5C5C5"/>
<path d="M159.668 48.6664L159.672 49.927L161.61 48.8056L161.602 47.5449L159.668 48.6664Z" fill="#898989"/>
<path d="M157.745 47.5443L159.668 48.6657L161.603 47.5443L159.965 46.5891L159.68 46.4229L157.745 47.5443Z" fill="#DCDCDC"/>
<path d="M165.568 48.6927L165.572 49.9534L167.511 48.8358L167.507 47.5713L165.568 48.6927Z" fill="#898989"/>
<path d="M163.646 47.5713L163.649 48.8358L165.572 49.9534L165.568 48.6927L163.646 47.5713Z" fill="#C5C5C5"/>
<path d="M163.646 47.5716L165.568 48.6931L167.507 47.5716L165.865 46.6165L165.58 46.4502L163.646 47.5716Z" fill="#DCDCDC"/>
<path d="M171.614 48.6966L171.618 49.9573L173.556 48.8397L173.553 47.5752L171.614 48.6966Z" fill="#626262"/>
<path d="M171.333 48.5303L171.337 49.7948L171.618 49.9572L171.614 48.6966L171.333 48.5303Z" fill="#8C8C8C"/>
<path d="M171.626 46.4541L173.268 47.4093L171.333 48.5307L171.614 48.697L173.553 47.5755L171.626 46.4541Z" fill="#9D9D9D"/>
<path d="M159.668 48.666L159.672 49.9267L159.953 50.0968V48.8323L159.668 48.666Z" fill="#8C8C8C"/>
<path d="M159.953 48.8324V50.0969L161.891 48.9716L161.888 47.7109L159.953 48.8324Z" fill="#626262"/>
<path d="M159.965 46.5889L161.602 47.544L159.668 48.6655L159.953 48.8317L161.888 47.7103L159.965 46.5889Z" fill="#9D9D9D"/>
<path d="M165.854 48.8597L165.857 50.1242L167.792 48.9989L167.788 47.7383L165.854 48.8597Z" fill="#626262"/>
<path d="M165.568 48.6934L165.572 49.954L165.857 50.1242L165.854 48.8596L165.568 48.6934Z" fill="#8C8C8C"/>
<path d="M154.863 49.2152L154.867 50.4758L156.802 49.3583L156.798 48.0938L154.863 49.2152Z" fill="#757575"/>
<path d="M157.079 48.2598L157.083 49.5204L158.725 50.4756L158.721 49.2149L157.079 48.2598Z" fill="#8C8C8C"/>
<path d="M160.709 49.2728L160.713 50.5373L162.651 49.412L162.647 48.1514L160.709 49.2728Z" fill="#757575"/>
<path d="M162.929 48.3145L162.933 49.579L164.574 50.538L164.57 49.2735L162.929 48.3145Z" fill="#8C8C8C"/>
<path d="M168.432 48.3066L168.435 49.5712L170.358 50.6926L170.355 49.4281L168.432 48.3066Z" fill="#A9A9A9"/>
<path d="M168.432 48.3066L168.435 49.5712L170.073 50.5263L170.069 49.2618L168.432 48.3066Z" fill="#8C8C8C"/>
<path d="M157.079 48.2598L157.083 49.5204L159.01 50.6419L159.006 49.3812L157.079 48.2598Z" fill="#A9A9A9"/>
<path d="M162.929 48.3145L162.933 49.579L164.859 50.7004L164.856 49.4398L162.929 48.3145Z" fill="#A9A9A9"/>
<path d="M159.761 49.8223L159.765 51.0829L160.05 51.2492L160.046 49.9886L159.761 49.8223Z" fill="#A9A9A9"/>
<path d="M153.769 49.8496L153.772 51.1141L154.054 51.2804L154.05 50.0159L153.769 49.8496Z" fill="#A9A9A9"/>
<path d="M156.786 50.3363L156.79 51.5969L158.724 50.4755L158.721 49.2148L156.786 50.3363Z" fill="#898989"/>
<path d="M154.863 49.2148L154.867 50.4755L156.79 51.5969L156.786 50.3363L154.863 49.2148Z" fill="#C5C5C5"/>
<path d="M162.632 50.3949L162.64 51.6594L164.574 50.538L164.57 49.2734L162.632 50.3949Z" fill="#898989"/>
<path d="M160.709 49.2734L160.713 50.538L162.64 51.6594L162.632 50.3949L160.709 49.2734Z" fill="#C5C5C5"/>
<path d="M156.786 50.3369L156.79 51.5976L157.075 51.7638L157.071 50.4993L156.786 50.3369Z" fill="#8C8C8C"/>
<path d="M157.079 48.2598L158.721 49.2149L156.786 50.3364L157.071 50.4988L159.006 49.3812L157.079 48.2598Z" fill="#9D9D9D"/>
<path d="M157.071 50.4984L157.075 51.7629L159.01 50.6415L159.006 49.3809L157.071 50.4984Z" fill="#626262"/>
<path d="M162.632 50.3945L162.64 51.659L162.921 51.8215L162.917 50.5608L162.632 50.3945Z" fill="#8C8C8C"/>
<path d="M160.709 49.2728L162.632 50.3942L164.57 49.2728L162.929 48.3138L162.647 48.1514L160.709 49.2728Z" fill="#DCDCDC"/>
<path d="M162.929 48.3145L164.57 49.2735L162.632 50.3949L162.917 50.5612L164.855 49.4398L162.929 48.3145Z" fill="#9D9D9D"/>
<path d="M162.917 50.5609L162.921 51.8215L164.859 50.7001L164.855 49.4395L162.917 50.5609Z" fill="#626262"/>
<path d="M157.83 50.9437V52.2082L159.765 51.0829L159.761 49.8223L157.83 50.9437Z" fill="#757575"/>
<path d="M151.83 50.971L151.834 52.2356L153.772 51.1141L153.768 49.8496L151.83 50.971Z" fill="#757575"/>
<path d="M160.046 49.9883L160.05 51.2489L161.688 52.2079L161.684 50.9434L160.046 49.9883Z" fill="#8C8C8C"/>
<path d="M154.05 50.0156L154.054 51.2801L155.691 52.2353V50.9708L154.05 50.0156Z" fill="#8C8C8C"/>
<path d="M160.046 49.9883L160.05 51.2489L161.973 52.3742L161.969 51.1097L160.046 49.9883Z" fill="#A9A9A9"/>
<path d="M154.05 50.0156L154.054 51.2801L155.977 52.3977L155.973 51.1371L154.05 50.0156Z" fill="#A9A9A9"/>
<path d="M150.832 51.5469L150.836 52.8075L151.121 52.9738L151.117 51.7132L150.832 51.5469Z" fill="#A9A9A9"/>
<path d="M156.731 51.5781L156.735 52.8426L157.02 53.0089L157.017 51.7444L156.731 51.5781Z" fill="#A9A9A9"/>
<path d="M157.83 50.9437L159.753 52.0651L161.684 50.9437L160.046 49.9886L159.761 49.8223L157.83 50.9437Z" fill="#DCDCDC"/>
<path d="M159.753 52.0648V53.3254L161.687 52.2079L161.684 50.9434L159.753 52.0648Z" fill="#898989"/>
<path d="M157.83 50.9434V52.2079L159.753 53.3254V52.0648L157.83 50.9434Z" fill="#C5C5C5"/>
<path d="M151.83 50.9707L151.834 52.2352L153.757 53.3528L153.753 52.0921L151.83 50.9707Z" fill="#C5C5C5"/>
<path d="M153.753 52.0921L153.757 53.3528L155.691 52.2352V50.9707L153.753 52.0921Z" fill="#898989"/>
<path d="M160.034 52.2279L160.038 53.4924L161.973 52.3749L161.969 51.1104L160.034 52.2279Z" fill="#626262"/>
<path d="M159.753 52.0654V53.3261L160.038 53.4924L160.034 52.2278L159.753 52.0654Z" fill="#8C8C8C"/>
<path d="M153.753 52.0918L153.757 53.3524L154.042 53.5187L154.038 52.2581L153.753 52.0918Z" fill="#8C8C8C"/>
<path d="M154.038 52.2582L154.042 53.5188L155.976 52.3974L155.973 51.1367L154.038 52.2582Z" fill="#626262"/>
<path d="M148.897 52.6683L148.901 53.929L150.836 52.8075L150.832 51.5469L148.897 52.6683Z" fill="#757575"/>
<path d="M151.117 51.7129L151.121 52.9735L152.759 53.9287L152.755 52.668L151.117 51.7129Z" fill="#8C8C8C"/>
<path d="M154.797 52.6996L154.801 53.9602L156.735 52.8426L156.731 51.5781L154.797 52.6996Z" fill="#757575"/>
<path d="M157.017 51.7441L157.02 53.0087L158.658 53.9599L158.654 52.6993L157.017 51.7441Z" fill="#8C8C8C"/>
<path d="M151.117 51.7129L151.121 52.9735L153.044 54.095L153.04 52.8343L151.117 51.7129Z" fill="#A9A9A9"/>
<path d="M157.017 51.7441L157.02 53.0087L158.943 54.1262L158.94 52.8656L157.017 51.7441Z" fill="#A9A9A9"/>
<path d="M153.799 53.2754V54.5399L154.084 54.7062V53.4417L153.799 53.2754Z" fill="#A9A9A9"/>
<path d="M147.468 53.5V54.7645L147.753 54.9269L147.749 53.6663L147.468 53.5Z" fill="#A9A9A9"/>
<path d="M150.82 53.7933L150.824 55.0539L152.759 53.9286L152.755 52.668L150.82 53.7933Z" fill="#898989"/>
<path d="M148.897 52.6683L150.82 53.7936L152.755 52.6683L151.117 51.7132L150.832 51.5469L148.897 52.6683Z" fill="#DCDCDC"/>
<path d="M148.897 52.668L148.901 53.9286L150.824 55.0539L150.82 53.7933L148.897 52.668Z" fill="#C5C5C5"/>
<path d="M156.721 53.8207L156.725 55.0852L158.659 53.9599L158.655 52.6992L156.721 53.8207Z" fill="#898989"/>
<path d="M154.797 52.6992L154.801 53.9599L156.724 55.0852L156.72 53.8207L154.797 52.6992Z" fill="#C5C5C5"/>
<path d="M154.797 52.6996L156.72 53.821L158.654 52.6996L157.017 51.7444L156.731 51.5781L154.797 52.6996Z" fill="#DCDCDC"/>
<path d="M150.82 53.7939L150.824 55.0546L151.109 55.2209L151.105 53.9564L150.82 53.7939Z" fill="#8C8C8C"/>
<path d="M151.105 53.9564L151.109 55.2209L153.044 54.0956L153.04 52.835L151.105 53.9564Z" fill="#626262"/>
<path d="M156.721 53.8203L156.725 55.0848L157.006 55.2511L157.002 53.9866L156.721 53.8203Z" fill="#8C8C8C"/>
<path d="M157.002 53.9867L157.006 55.2512L158.944 54.1259L158.94 52.8652L157.002 53.9867Z" fill="#626262"/>
<path d="M151.861 54.4007L151.865 55.6613L153.8 54.5399V53.2754L151.861 54.4007Z" fill="#757575"/>
<path d="M154.084 53.4414V54.7059L156.007 55.8274V54.5667L154.084 53.4414Z" fill="#A9A9A9"/>
<path d="M154.084 53.4414V54.7059L155.726 55.6611L155.722 54.4004L154.084 53.4414Z" fill="#8C8C8C"/>
<path d="M145.529 54.6214L145.533 55.8821L147.468 54.7645V53.5L145.529 54.6214Z" fill="#757575"/>
<path d="M147.749 53.666L147.753 54.9267L149.395 55.8818L149.387 54.6212L147.749 53.666Z" fill="#8C8C8C"/>
<path d="M147.749 53.666L147.753 54.9267L149.676 56.0481L149.672 54.7836L147.749 53.666Z" fill="#A9A9A9"/>
<path d="M150.432 55.2285L150.435 56.4892L150.721 56.6554L150.713 55.3948L150.432 55.2285Z" fill="#A9A9A9"/>
<path d="M144.435 55.2549L144.438 56.5155L144.724 56.6818L144.72 55.4212L144.435 55.2549Z" fill="#A9A9A9"/>
<path d="M153.788 55.518L153.792 56.7825L155.726 55.661L155.723 54.4004L153.788 55.518Z" fill="#898989"/>
<path d="M151.861 54.4004L151.865 55.661L153.792 56.7825L153.788 55.518L151.861 54.4004Z" fill="#C5C5C5"/>
<path d="M151.861 54.4007L153.788 55.5183L155.723 54.4007L154.085 53.4417L153.8 53.2754L151.861 54.4007Z" fill="#DCDCDC"/>
<path d="M153.788 55.5186L153.792 56.7831L154.073 56.9494L154.069 55.6848L153.788 55.5186Z" fill="#8C8C8C"/>
<path d="M154.085 53.4414L155.723 54.4004L153.788 55.518L154.069 55.6843L156.008 54.5667L154.085 53.4414Z" fill="#9D9D9D"/>
<path d="M154.069 55.685L154.073 56.9495L156.008 55.828V54.5674L154.069 55.685Z" fill="#626262"/>
<path d="M147.452 55.7425L147.456 57.007L149.394 55.8817L149.387 54.6211L147.452 55.7425Z" fill="#898989"/>
<path d="M145.529 54.6211L145.533 55.8817L147.456 57.007L147.452 55.7425L145.529 54.6211Z" fill="#C5C5C5"/>
<path d="M145.529 54.6214L147.452 55.7429L149.387 54.6214L147.749 53.6663L147.468 53.5L145.529 54.6214Z" fill="#DCDCDC"/>
<path d="M147.452 55.7422L147.456 57.0067L147.741 57.1691L147.737 55.9085L147.452 55.7422Z" fill="#8C8C8C"/>
<path d="M147.737 55.9085L147.741 57.1692L149.676 56.0477L149.672 54.7832L147.737 55.9085Z" fill="#626262"/>
<path d="M154.593 55.9897L154.597 57.2542L168.15 49.4042L168.146 48.1396L154.593 55.9897Z" fill="#757575"/>
<path d="M148.497 56.3499V57.6145L150.435 56.4892L150.432 55.2285L148.497 56.3499Z" fill="#757575"/>
<path d="M142.5 56.3763L142.504 57.637L144.438 56.5155L144.435 55.2549L142.5 56.3763Z" fill="#757575"/>
<path d="M150.713 55.3945L150.721 56.6552L152.358 57.6142L152.355 56.3497L150.713 55.3945Z" fill="#8C8C8C"/>
<path d="M144.72 55.4219L144.724 56.6825L146.361 57.6377L146.358 56.377L144.72 55.4219Z" fill="#8C8C8C"/>
<path d="M150.713 55.3945L150.721 56.6552L152.644 57.7805L152.64 56.516L150.713 55.3945Z" fill="#A9A9A9"/>
<path d="M144.72 55.4219L144.724 56.6825L146.647 57.804L146.643 56.5394L144.72 55.4219Z" fill="#A9A9A9"/>
<path d="M153.163 56.8213L153.167 58.0819L153.452 58.2482L153.448 56.9876L153.163 56.8213Z" fill="#A9A9A9"/>
<path d="M141.499 56.957L141.507 58.2177L141.788 58.384L141.784 57.1233L141.499 56.957Z" fill="#A9A9A9"/>
<path d="M156.516 57.1156L156.523 58.3763L170.073 50.5262L170.069 49.2617L156.516 57.1156Z" fill="#898989"/>
<path d="M154.593 55.9902L154.597 57.2548L156.523 58.3762L156.516 57.1155L154.593 55.9902Z" fill="#C5C5C5"/>
<path d="M154.593 55.9897L156.516 57.115L170.069 49.2611L168.431 48.3059L168.146 48.1396L154.593 55.9897Z" fill="#DCDCDC"/>
<path d="M147.402 56.9844L147.406 58.245L147.688 58.4113L147.684 57.1507L147.402 56.9844Z" fill="#A9A9A9"/>
<path d="M156.801 57.2817L156.805 58.5423L170.358 50.6922L170.354 49.4277L156.801 57.2817Z" fill="#626262"/>
<path d="M168.431 48.3066L170.069 49.2618L156.516 57.1157L156.801 57.282L170.354 49.4281L168.431 48.3066Z" fill="#9D9D9D"/>
<path d="M156.516 57.1152L156.523 58.3759L156.805 58.5422L156.801 57.2815L156.516 57.1152Z" fill="#8C8C8C"/>
<path d="M148.497 56.3499L150.42 57.4714L152.355 56.3499L150.713 55.3948L150.432 55.2285L148.497 56.3499Z" fill="#DCDCDC"/>
<path d="M148.497 56.3496V57.6141L150.42 58.7356V57.471L148.497 56.3496Z" fill="#C5C5C5"/>
<path d="M150.42 57.471V58.7356L152.358 57.6141L152.354 56.3496L150.42 57.471Z" fill="#898989"/>
<path d="M142.5 56.377L142.504 57.6376L144.427 58.759L144.423 57.4984L142.5 56.377Z" fill="#C5C5C5"/>
<path d="M142.5 56.3763L144.423 57.4978L146.357 56.3763L144.72 55.4212L144.435 55.2549L142.5 56.3763Z" fill="#DCDCDC"/>
<path d="M144.424 57.4984L144.428 58.759L146.362 57.6376L146.358 56.377L144.424 57.4984Z" fill="#898989"/>
<path d="M150.713 55.3945L152.354 56.3497L150.42 57.4711L150.701 57.6374L152.64 56.516L150.713 55.3945Z" fill="#9D9D9D"/>
<path d="M150.42 57.4707V58.7352L150.705 58.8976L150.701 57.637L150.42 57.4707Z" fill="#8C8C8C"/>
<path d="M150.701 57.6371L150.705 58.8977L152.643 57.7801L152.64 56.5156L150.701 57.6371Z" fill="#626262"/>
<path d="M144.721 55.4219L146.358 56.377L144.424 57.4985L144.709 57.6647L146.643 56.5394L144.721 55.4219Z" fill="#9D9D9D"/>
<path d="M144.424 57.498L144.428 58.7587L144.713 58.925L144.709 57.6643L144.424 57.498Z" fill="#8C8C8C"/>
<path d="M144.709 57.6644L144.713 58.925L146.647 57.8036L146.643 56.5391L144.709 57.6644Z" fill="#626262"/>
<path d="M151.229 57.9427L151.232 59.2034L153.167 58.0819L153.163 56.8213L151.229 57.9427Z" fill="#757575"/>
<path d="M153.448 56.9873L153.452 58.248L155.375 59.3694L155.371 58.1087L153.448 56.9873Z" fill="#A9A9A9"/>
<path d="M153.448 56.9873L153.452 58.248L155.09 59.2031L155.086 57.9425L153.448 56.9873Z" fill="#8C8C8C"/>
<path d="M139.564 58.0746L139.568 59.3391L141.507 58.2177L141.499 56.957L139.564 58.0746Z" fill="#757575"/>
<path d="M141.784 57.123L141.788 58.3837L143.426 59.3388V58.0743L141.784 57.123Z" fill="#8C8C8C"/>
<path d="M145.464 58.1058L145.468 59.3665L147.406 58.245L147.402 56.9844L145.464 58.1058Z" fill="#757575"/>
<path d="M147.684 57.1504L147.687 58.411L149.325 59.3662V58.1055L147.684 57.1504Z" fill="#8C8C8C"/>
<path d="M141.784 57.123L141.788 58.3837L143.711 59.5051L143.707 58.2406L141.784 57.123Z" fill="#A9A9A9"/>
<path d="M147.684 57.1504L147.687 58.411L149.61 59.5325V58.268L147.684 57.1504Z" fill="#A9A9A9"/>
<path d="M150.135 58.5771L150.139 59.8378L150.42 60.0041L150.416 58.7396L150.135 58.5771Z" fill="#A9A9A9"/>
<path d="M144.466 58.6855L144.47 59.9462L144.755 60.1125L144.751 58.8518L144.466 58.6855Z" fill="#A9A9A9"/>
<path d="M151.229 57.9427L153.151 59.0642L155.086 57.9427L153.448 56.9876L153.163 56.8213L151.229 57.9427Z" fill="#DCDCDC"/>
<path d="M151.229 57.9434L151.232 59.204L153.151 60.3293V59.0648L151.229 57.9434Z" fill="#C5C5C5"/>
<path d="M153.151 59.0648V60.3293L155.09 59.204L155.086 57.9434L153.151 59.0648Z" fill="#898989"/>
<mask id="mask3_967_2551" style="mask-type:alpha" maskUnits="userSpaceOnUse" x="136" y="57" width="2" height="4">
<path d="M136.604 57.9502C136.604 58.3717 136.608 58.7893 136.608 59.2108C136.608 59.6555 136.901 60.0964 137.479 60.4367V59.1722C136.897 58.8357 136.604 58.3949 136.604 57.9502Z" fill="white"/>
</mask>
<g mask="url(#mask3_967_2551)">
<path d="M136.604 57.9502V59.2108C136.612 59.6555 136.901 60.0964 137.479 60.4367V59.1722C136.897 58.8357 136.604 58.3949 136.604 57.9502Z" fill="#DBDBDB"/>
</g>
<path d="M141.487 59.1995L141.491 60.4602L143.426 59.3387V58.0742L141.487 59.1995Z" fill="#898989"/>
<path d="M139.564 58.0742L139.568 59.3387L141.491 60.4602L141.487 59.1995L139.564 58.0742Z" fill="#C5C5C5"/>
<path d="M139.564 58.0746L141.487 59.1999L143.426 58.0746L141.784 57.1233L141.499 56.957L139.564 58.0746Z" fill="#DCDCDC"/>
<path d="M147.387 59.2269L147.391 60.4876L149.325 59.3661V58.1055L147.387 59.2269Z" fill="#898989"/>
<path d="M145.464 58.1058L147.387 59.2272L149.325 58.1058L147.684 57.1507L147.402 56.9844L145.464 58.1058Z" fill="#DCDCDC"/>
<path d="M145.464 58.1055L145.468 59.3661L147.391 60.4876L147.387 59.2269L145.464 58.1055Z" fill="#C5C5C5"/>
<path d="M153.434 59.2308L153.437 60.4915L155.376 59.37L155.372 58.1094L153.434 59.2308Z" fill="#626262"/>
<path d="M153.151 59.0645V60.329L153.437 60.4914L153.433 59.2307L153.151 59.0645Z" fill="#8C8C8C"/>
<path d="M141.487 59.1992L141.491 60.4599L141.772 60.6262V59.3616L141.487 59.1992Z" fill="#8C8C8C"/>
<path d="M141.772 59.3617V60.6262L143.711 59.5048L143.707 58.2402L141.772 59.3617Z" fill="#626262"/>
<path d="M147.387 59.2266L147.391 60.4872L147.676 60.6535L147.672 59.3928L147.387 59.2266Z" fill="#8C8C8C"/>
<path d="M147.672 59.3929L147.676 60.6535L149.61 59.5321V58.2676L147.672 59.3929Z" fill="#626262"/>
<path d="M147.683 57.1504L149.325 58.1055L147.387 59.227L147.672 59.3933L149.61 58.268L147.683 57.1504Z" fill="#9D9D9D"/>
<path d="M148.196 59.6986L148.2 60.9631L150.139 59.8378L150.135 58.5771L148.196 59.6986Z" fill="#757575"/>
<path d="M150.416 58.7393L150.42 60.0038L152.343 61.1252V59.8646L150.416 58.7393Z" fill="#A9A9A9"/>
<path d="M150.416 58.7393L150.42 60.0038L152.058 60.9628V59.6983L150.416 58.7393Z" fill="#8C8C8C"/>
<path d="M142.527 59.807L142.535 61.0676L144.47 59.9462L144.466 58.6855L142.527 59.807Z" fill="#757575"/>
<path d="M144.751 58.8516L144.755 60.1122L146.393 61.0674L146.389 59.8067L144.751 58.8516Z" fill="#8C8C8C"/>
<path d="M144.751 58.8516L144.755 60.1122L146.678 61.2336L146.674 59.973L144.751 58.8516Z" fill="#A9A9A9"/>
<path d="M147.198 60.2783L147.202 61.539L147.487 61.7053L147.483 60.4446L147.198 60.2783Z" fill="#A9A9A9"/>
<path d="M150.119 60.8197L150.123 62.0842L152.057 60.9628V59.6982L150.119 60.8197Z" fill="#898989"/>
<path d="M148.196 59.6982L148.2 60.9628L150.123 62.0842L150.119 60.8197L148.196 59.6982Z" fill="#C5C5C5"/>
<path d="M148.196 59.6986L150.119 60.82L152.058 59.6986L150.416 58.7396L150.135 58.5771L148.196 59.6986Z" fill="#DCDCDC"/>
<path d="M142.527 59.8066L142.535 61.0673L144.458 62.1887L144.454 60.9281L142.527 59.8066Z" fill="#C5C5C5"/>
<path d="M144.454 60.9281L144.458 62.1887L146.392 61.0673L146.389 59.8066L144.454 60.9281Z" fill="#898989"/>
<path d="M150.119 60.8203L150.123 62.0848L150.408 62.2472L150.404 60.9866L150.119 60.8203Z" fill="#8C8C8C"/>
<path d="M150.404 60.9867L150.408 62.2473L152.343 61.1259V59.8652L150.404 60.9867Z" fill="#626262"/>
<path d="M150.416 58.7393L152.057 59.6983L150.119 60.8197L150.404 60.986L152.343 59.8646L150.416 58.7393Z" fill="#9D9D9D"/>
<path d="M144.454 60.9287L144.458 62.1894L144.739 62.3556L144.735 61.095L144.454 60.9287Z" fill="#8C8C8C"/>
<path d="M144.735 61.0941L144.739 62.3547L146.678 61.2333L146.674 59.9727L144.735 61.0941Z" fill="#626262"/>
<path d="M144.751 58.8516L146.389 59.8067L144.454 60.9282L144.735 61.0944L146.674 59.973L144.751 58.8516Z" fill="#9D9D9D"/>
<path d="M145.264 61.3959V62.6604L147.202 61.539L147.198 60.2783L145.264 61.3959Z" fill="#757575"/>
<path d="M147.483 60.4453L147.487 61.706L149.125 62.6611L149.121 61.3966L147.483 60.4453Z" fill="#8C8C8C"/>
<path d="M147.483 60.4453L147.487 61.706L149.406 62.8274V61.5629L147.483 60.4453Z" fill="#A9A9A9"/>
<path d="M145.264 61.3965V62.661L147.19 63.7824L147.187 62.5179L145.264 61.3965Z" fill="#C5C5C5"/>
<path d="M147.187 62.5179L147.19 63.7824L149.125 62.661L149.121 61.3965L147.187 62.5179Z" fill="#898989"/>
<path d="M145.264 61.3959L147.187 62.5173L149.121 61.3959L147.483 60.4446L147.198 60.2783L145.264 61.3959Z" fill="#DCDCDC"/>
<path d="M147.187 62.5176L147.19 63.7821L147.472 63.9484L147.468 62.6877L147.187 62.5176Z" fill="#8C8C8C"/>
<path d="M147.468 62.6878L147.472 63.9485L149.406 62.827V61.5625L147.468 62.6878Z" fill="#626262"/>
<path d="M137.476 59.1765L146.732 64.5749L176.629 47.2545L168 42.2196L167.546 41.9567C167.476 41.9219 167.426 41.8871 167.372 41.8561C166.205 41.1717 164.309 41.1717 163.133 41.8561L137.334 56.8022C136.324 57.4944 136.37 58.5268 137.48 59.1765H137.476ZM144.436 55.2553L144.721 55.4216L146.644 56.5431L144.709 57.6684L144.424 57.5021L142.501 56.3807L144.44 55.2592L144.436 55.2553ZM164.571 49.2731L164.856 49.4393L162.918 50.5646L162.632 50.3984L160.709 49.2731L162.648 48.1516L162.933 48.314L164.571 49.2692V49.2731ZM165.569 48.6969L163.646 47.5754L165.58 46.454L165.866 46.6203L167.789 47.7417L165.85 48.867L165.565 48.7007L165.569 48.6969ZM160.047 49.9885L161.97 51.1138L160.035 52.2313L159.754 52.0689L157.831 50.9475L159.765 49.8261L160.05 49.9923L160.047 49.9885ZM157.018 51.7441L158.941 52.8655L157.006 53.987L156.721 53.8207L154.798 52.6992L156.736 51.5778L157.022 51.7402L157.018 51.7441ZM154.085 53.4417L156.008 54.567L154.07 55.6885L153.785 55.5222L151.862 54.4046L153.8 53.2793L154.085 53.4456V53.4417ZM150.717 55.3946L152.64 56.516L150.706 57.6374L150.424 57.4711L148.501 56.3497L150.436 55.2321L150.717 55.3946ZM147.688 57.1502L149.611 58.2716L147.673 59.3969L147.388 59.2306L145.465 58.1092L147.403 56.9878L147.688 57.1541V57.1502ZM147.469 53.4997L147.75 53.666L149.673 54.7836L147.734 55.9089L147.453 55.7426L145.53 54.6212L147.465 53.4997H147.469ZM150.837 51.5469L151.122 51.7132L153.045 52.8346L151.11 53.956L150.825 53.7936L148.902 52.6683L150.84 51.5469H150.837ZM153.769 49.8493L154.054 50.0155L155.977 51.137L154.043 52.2584L153.758 52.0921L151.835 50.9707L153.773 49.8493H153.769ZM156.798 48.0936L157.079 48.2599L159.002 49.3813L157.068 50.5028L156.787 50.3404L154.864 49.2189L156.798 48.0975V48.0936ZM159.681 46.4231L159.966 46.5894L161.889 47.7108L159.95 48.8322L159.665 48.6659L157.742 47.5445L159.681 46.4231ZM162.902 44.8879L164.825 46.0093L162.887 47.1307L162.602 46.9645L160.679 45.843L162.613 44.7216L162.898 44.8879H162.902ZM165.931 43.1322L167.854 44.2537L165.92 45.3751L165.634 45.2088L163.711 44.0874L165.646 42.966L165.931 43.1322ZM168.898 44.8608L170.821 45.9822L168.887 47.1075L168.602 46.9413L166.679 45.816L168.617 44.6945L168.902 44.8608H168.898ZM171.619 48.6969L171.334 48.5306L169.411 47.4092L171.349 46.2877L171.631 46.454L173.553 47.5754L171.619 48.6969ZM156.806 57.2817L156.521 57.1154L154.598 55.9901L168.151 48.14L168.436 48.3024L170.359 49.4239L156.806 57.2778V57.2817ZM153.438 59.2306L153.156 59.0644L151.233 57.9429L153.168 56.8215L153.453 56.9878L155.376 58.1092L153.442 59.2306H153.438ZM150.409 60.9863L150.124 60.82L148.201 59.6986L150.135 58.5732L150.42 58.7395L152.343 59.8648L150.405 60.9863H150.409ZM147.187 62.5215L145.264 61.4L147.199 60.2786L147.484 60.4449L149.407 61.5663L147.472 62.6916L147.187 62.5215ZM144.455 60.9283L142.532 59.8068L144.47 58.6854L144.756 58.8517L146.679 59.9731L144.744 61.0945L144.459 60.9283H144.455ZM141.492 59.1997L139.569 58.0744L141.507 56.953L141.792 57.1193L143.715 58.2407L141.777 59.366L141.492 59.1997Z" fill="#BDBDBD"/>
<path d="M165.931 43.1318L167.568 44.087L165.634 45.2084L165.919 45.3747L167.853 44.2533L165.931 43.1318Z" fill="#9D9D9D"/>
<path d="M166.674 45.8158L168.597 46.9372L170.535 45.8158L168.897 44.8606L168.612 44.6943L166.674 45.8158Z" fill="#DCDCDC"/>
<path d="M168.897 44.8604L170.535 45.8155L168.597 46.9369L168.886 47.1032L170.82 45.9818L168.897 44.8604Z" fill="#9D9D9D"/>
<path d="M165.865 46.6162L167.507 47.5714L165.568 48.6928L165.854 48.8591L167.788 47.7376L165.865 46.6162Z" fill="#9D9D9D"/>
<path d="M154.863 49.2152L156.786 50.3366L158.721 49.2152L157.079 48.26L156.798 48.0938L154.863 49.2152Z" fill="#DCDCDC"/>
<path d="M151.83 50.971L153.753 52.0925L155.691 50.971L154.05 50.0159L153.768 49.8496L151.83 50.971Z" fill="#DCDCDC"/>
<path d="M160.046 49.9883L161.684 50.9434L159.753 52.0649L160.034 52.2273L161.969 51.1097L160.046 49.9883Z" fill="#9D9D9D"/>
<path d="M154.05 50.0156L155.691 50.9708L153.753 52.0922L154.038 52.2585L155.973 51.1371L154.05 50.0156Z" fill="#9D9D9D"/>
<path d="M151.117 51.7129L152.755 52.668L150.82 53.7933L151.105 53.9558L153.04 52.8343L151.117 51.7129Z" fill="#9D9D9D"/>
<path d="M157.017 51.7441L158.655 52.6993L156.721 53.8207L157.002 53.987L158.94 52.8656L157.017 51.7441Z" fill="#9D9D9D"/>
<path d="M147.749 53.666L149.387 54.6212L147.452 55.7426L147.737 55.9089L149.672 54.7836L147.749 53.666Z" fill="#9D9D9D"/>
<path d="M153.448 56.9873L155.086 57.9425L153.151 59.0639L153.433 59.2302L155.371 58.1087L153.448 56.9873Z" fill="#9D9D9D"/>
<path d="M141.784 57.123L143.426 58.0743L141.487 59.1996L141.772 59.362L143.707 58.2406L141.784 57.123Z" fill="#9D9D9D"/>
<path d="M142.527 59.807L144.454 60.9284L146.389 59.807L144.751 58.8518L144.466 58.6855L142.527 59.807Z" fill="#DCDCDC"/>
<path d="M147.483 60.4453L149.121 61.3966L147.187 62.518L147.468 62.6882L149.406 61.5629L147.483 60.4453Z" fill="#9D9D9D"/>
<path d="M137.476 59.1768L137.479 60.4413L146.736 65.8358L146.732 64.5751L137.476 59.1768Z" fill="#A9A9A9"/>
<path d="M146.731 64.5753L146.735 65.8359L176.628 48.5155V47.2549L146.731 64.5753Z" fill="#757575"/>
<path d="M146.731 64.5752L146.735 65.8358L147.186 66.0988L147.182 64.8343L146.731 64.5752Z" fill="#979797"/>
<path d="M167.999 42.2197L176.628 47.2546L146.731 64.575L147.182 64.8341L177.075 47.5175L167.999 42.2197Z" fill="#A9A9A9"/>
<path d="M147.183 64.8341L147.186 66.0986L177.079 48.7782L177.075 47.5176L147.183 64.8341Z" fill="#696969"/>
<g style="mix-blend-mode:multiply" opacity="0.22">
<path d="M132.197 71.934C132.197 71.934 129.26 72.7499 130.428 73.5775C131.595 74.4089 137.827 77.9511 137.827 77.9511C137.827 77.9511 139.507 78.7786 141.064 77.9511L142.62 77.1235C142.62 77.1235 144.285 76.4352 144.301 75.9441C144.316 75.3176 143.222 74.6448 141.784 73.8211C138.251 71.7909 134.474 71.1065 132.197 71.934Z" fill="#231F20"/>
</g>
<path d="M139.657 70.9988C137.753 69.8928 135.985 69.6414 134.99 69.6569L130.57 72.2323C131.568 72.2169 133.333 72.4682 135.237 73.5703C136.659 74.3979 137.996 75.6005 139.052 76.7026C139.553 77.2324 140.355 77.3677 140.983 77.0004L142.956 75.8519C143.518 75.5232 143.807 74.5796 143.357 74.1117C142.304 73.0057 141.079 71.8186 139.653 70.9949L139.657 70.9988Z" fill="#C1C1C1"/>
<path d="M135.237 73.574C137.079 74.6413 138.775 76.3428 139.896 77.6382L139.804 77.673C139.565 77.7658 139.056 77.5106 138.601 77.2477C138.366 77.1123 138.143 76.9731 137.981 76.8764L132.486 73.69C132.324 73.5972 132.1 73.4812 131.861 73.342C131.407 73.079 130.902 72.7465 130.663 72.3791L130.57 72.236C131.568 72.2205 133.333 72.4719 135.237 73.574Z" fill="#999999"/>
<path d="M130.609 71.6133C130.239 71.8337 130.32 72.3093 130.644 72.4447C130.809 72.5143 131.591 72.669 131.861 72.7463C132.775 72.9938 133.796 73.4501 134.644 73.9412C135.873 74.6528 137.503 75.9482 138.57 77.1741C138.825 77.468 139.179 77.6845 139.645 77.7348C140.405 77.8237 140.809 77.7348 141.584 77.2553L142.99 76.3697C143.765 75.9211 144.035 74.8345 143.364 74.0302C143.449 73.9412 142.274 76.4355 142.093 76.5399C141.148 77.0928 140.767 77.3713 140.119 77.3713C139.514 77.3713 138.96 77.0967 138.69 76.8067C137.453 75.4687 136.085 74.3357 134.647 73.5004C133.457 72.8121 132.308 72.3983 131.249 72.2011C130.986 72.1508 130.605 72.1044 130.555 71.942C130.501 71.7796 130.609 71.6171 130.609 71.6171V71.6133Z" fill="#B5B5B5"/>
<path d="M143.133 73.7638C141.969 72.5495 140.697 71.517 139.36 70.7436C137.984 69.947 136.655 69.4985 135.445 69.3708C134.821 69.3051 134.2 69.5062 133.653 69.8233L130.605 71.6098C130.37 71.7452 130.466 72.0971 130.736 72.128C130.944 72.1512 131.16 72.1822 131.379 72.2208C132.408 72.4181 133.51 72.8318 134.643 73.4892C135.865 74.2007 137.04 75.125 138.127 76.2116C138.239 76.3237 138.381 76.4784 138.536 76.6486C139.198 77.3872 140.285 77.5844 141.144 77.0855L141.302 76.9927L142.913 76.0531C143.684 75.6045 143.865 74.5526 143.256 73.8953C143.21 73.845 143.168 73.7986 143.129 73.7599L143.133 73.7638Z" fill="#E0E0E0"/>
<path d="M132.905 71.6133C132.905 71.6133 134.339 71.6133 135.564 72.232C136.79 72.8507 137.63 73.9954 137.63 73.9954C137.63 73.9954 136.512 73.1446 135.468 72.5568C134.424 71.969 132.905 71.6133 132.905 71.6133Z" fill="#F2F2F2"/>
<g style="mix-blend-mode:multiply" opacity="0.22">
<path d="M198.093 52.6878C198.093 52.6878 196.713 51.9376 195.885 51.5857C194.998 51.2106 194.32 51.6707 194.32 51.6707L160.058 70.7738C158.836 71.4931 159.865 72.0847 159.865 72.0847C159.865 72.0847 160.235 72.3129 162.015 73.4189C162.902 73.9641 163.68 73.357 163.68 73.357C163.68 73.357 167.773 70.9826 172.254 68.4072L175.796 70.565C175.796 70.565 177.819 71.4544 179.461 70.565C181.106 69.6795 187.299 65.8704 187.299 65.8704C187.299 65.8704 189.195 64.6021 187.804 62.4443C187.245 61.5742 186.894 60.8511 184.389 61.3035C191.079 57.4713 195.985 54.6793 197.746 53.7357C198.979 53.0745 198.089 52.6916 198.089 52.6916L198.093 52.6878Z" fill="#231F20"/>
</g>
<path d="M161.326 61.1609L160.521 60.6891L160.459 38.709L161.264 39.1808L161.326 61.1609Z" fill="#AAAAAA"/>
<path d="M161.264 39.1807L160.459 38.7089L195.696 18.291L196.509 18.7628L161.264 39.1807Z" fill="#F2F2F2"/>
<path d="M196.779 16.2452C196.502 16.0828 196.116 16.1099 195.692 16.3496L160.054 36.9957C159.172 37.51 158.528 38.7397 158.528 39.6446L158.582 66.4972H158.575C158.575 66.9767 158.748 67.3208 159.022 67.4794L160.112 68.0981C159.839 67.9396 159.669 67.5993 159.669 67.1159L159.681 64.3355L159.619 40.2633C159.615 39.2772 160.34 38.0823 161.141 37.6183L196.779 16.9684C197.203 16.7247 197.588 16.7015 197.866 16.8601L196.775 16.2414L196.779 16.2452Z" fill="#E8EDED"/>
<path d="M198.317 17.8426C198.317 16.872 197.627 16.4775 196.787 16.9648L161.149 37.6147C160.305 38.1058 159.623 39.2891 159.627 40.2597L159.673 67.1123C159.677 68.0868 160.363 68.4773 161.207 67.9901L174.837 60.0975L183.138 55.2908L196.864 47.3441C197.708 46.853 198.39 45.6697 198.39 44.6952C198.39 44.6952 198.398 44.2041 198.321 17.8464L198.317 17.8426Z" fill="#CBD1D1"/>
<mask id="mask4_967_2551" style="mask-type:alpha" maskUnits="userSpaceOnUse" x="169" y="59" width="10" height="6">
<path d="M169.932 64.4785C172.71 62.8582 175.492 61.2379 178.271 59.6138C178.425 59.5248 178.633 59.5364 178.868 59.6718L170.533 64.5326C170.298 64.3973 170.086 64.3857 169.935 64.4746L169.932 64.4785Z" fill="white"/>
</mask>
<g mask="url(#mask4_967_2551)">
<path d="M169.932 64.4785L178.271 59.6138C178.425 59.5248 178.633 59.5364 178.868 59.6718L170.533 64.5326C170.298 64.3973 170.086 64.3857 169.935 64.4746L169.932 64.4785Z" fill="#CBD1D1"/>
</g>
<path d="M170.532 64.5366L178.868 59.6758L184.798 63.1058L176.463 67.9744L170.532 64.5366Z" fill="#CBD1D1"/>
<mask id="mask5_967_2551" style="mask-type:alpha" maskUnits="userSpaceOnUse" x="176" y="63" width="11" height="6">
<path d="M186.987 63.527C184.205 65.1473 181.426 66.7676 178.648 68.3917C178.247 68.6237 177.58 68.6199 176.459 67.9741L184.794 63.1094C185.916 63.759 186.582 63.7668 186.983 63.5309L186.987 63.527Z" fill="white"/>
</mask>
<g mask="url(#mask5_967_2551)">
<path d="M176.463 67.9741L184.798 63.1094C185.92 63.759 186.586 63.7668 186.987 63.5309L178.652 68.3956C178.251 68.6276 177.584 68.6237 176.463 67.978V67.9741Z" fill="#CBD1D1"/>
</g>
<mask id="mask6_967_2551" style="mask-type:alpha" maskUnits="userSpaceOnUse" x="179" y="62" width="10" height="8">
<path d="M187.55 64.56C184.772 66.1803 181.993 67.8006 179.211 69.4209C180.055 68.9298 180.074 67.6614 180.074 67.6421L188.436 62.7773C188.436 62.7967 188.394 64.0651 187.55 64.56Z" fill="white"/>
</mask>
<g mask="url(#mask6_967_2551)">
<path d="M180.078 67.6421L188.44 62.7773C188.44 62.7967 188.398 64.0651 187.554 64.56L179.215 69.4209C180.059 68.9298 180.078 67.6614 180.078 67.6421Z" fill="#AFB4B4"/>
</g>
<path d="M177.461 44.8306L185.823 39.9697L188.436 62.7813L180.078 67.6421L177.461 44.8306Z" fill="#AFB4B4"/>
<mask id="mask7_967_2551" style="mask-type:alpha" maskUnits="userSpaceOnUse" x="176" y="39" width="10" height="6">
<path d="M176.91 44.7722C179.692 43.1519 182.471 41.5316 185.249 39.9113C185.403 39.8185 185.592 39.834 185.824 39.9693L177.461 44.8302C177.23 44.6948 177.064 44.6832 176.91 44.7722Z" fill="white"/>
</mask>
<g mask="url(#mask7_967_2551)">
<path d="M176.91 44.7722L185.249 39.9113C185.403 39.8185 185.592 39.834 185.824 39.9693L177.461 44.8302C177.23 44.6948 177.064 44.6832 176.91 44.7722Z" fill="#AFB4B4"/>
</g>
<path d="M177.461 44.8301L180.074 67.6456C180.074 67.6804 180.024 71.0099 176.455 68.941L169.688 65.0199C169.688 64.4862 170.066 64.2696 170.532 64.5403L176.463 67.9781C179.13 69.5211 179.28 67.4058 179.28 67.1583L176.667 45.3212C176.667 44.7876 176.999 44.571 177.461 44.8379V44.8301Z" fill="#E8EDED"/>
<g style="mix-blend-mode:multiply" opacity="0.22">
<path d="M157.295 81.6211C156.901 81.4161 156.601 81.1957 156.582 81.1764C156.254 80.1013 154.601 79.0186 152.451 79.0186C149.98 79.0186 148.192 80.1245 148.192 81.4277C148.192 82.7309 149.98 83.7557 152.451 83.7557C154.042 83.7557 155.325 83.2568 155.969 82.5917L156.347 82.8044C156.347 82.8044 156.501 82.8662 156.767 82.6961C157.167 82.4409 157.483 82.147 157.483 82.147C157.483 82.147 157.819 81.8918 157.291 81.6172L157.295 81.6211Z" fill="#231F20"/>
</g>
<path d="M156.069 72.7615L156.046 80.5072C156.046 81.0563 155.688 81.6015 154.971 82.0153C153.53 82.8544 151.191 82.8544 149.742 82.0153C149.014 81.5938 148.647 81.0369 148.647 80.4878L148.671 72.7422C148.671 73.2952 149.033 73.8482 149.761 74.2697C151.21 75.1088 153.553 75.1088 154.99 74.2697C155.707 73.852 156.066 73.3068 156.066 72.7577L156.069 72.7615Z" fill="#006837"/>
<path d="M154.975 71.2339C156.424 72.073 156.432 73.4342 154.99 74.2734C153.553 75.1125 151.21 75.1125 149.761 74.2734C148.312 73.4342 148.304 72.073 149.742 71.2378C151.179 70.3986 153.522 70.3986 154.971 71.2378L154.975 71.2339Z" fill="#22B573"/>
<path d="M154.767 71.3733C156.101 72.1042 156.108 73.2875 154.783 74.0184C153.457 74.7493 151.303 74.7493 149.97 74.0184C148.636 73.2875 148.629 72.1042 149.954 71.3733C151.276 70.6425 153.434 70.6425 154.767 71.3733Z" fill="#006837"/>
<path d="M157.253 79.5135L155.888 78.7246C155.888 78.7246 155.75 78.8252 155.376 79.0494C155.083 79.2196 154.937 79.2776 154.937 79.2776L156.301 80.0703C156.389 80.1206 156.466 80.1245 156.52 80.0897L157.476 79.5367C157.418 79.5676 157.341 79.5638 157.256 79.5135H157.253Z" fill="#009245"/>
<path d="M157.384 75.7891L155.896 74.9268C155.896 74.9268 155.746 75.0892 155.453 75.2555C155.176 75.4101 154.94 75.4836 154.94 75.4836L156.428 76.3421C156.771 76.5432 157.048 77.0266 157.048 77.421L157.041 80.2787C157.041 80.4759 156.971 80.6151 156.86 80.6809L157.811 80.124C157.923 80.0583 157.992 79.9191 157.992 79.7219L158 76.868C158 76.4697 157.723 75.9863 157.38 75.7852L157.384 75.7891Z" fill="#006837"/>
<path d="M156.432 76.3458C156.775 76.5469 157.052 77.0302 157.052 77.4247L157.044 80.2824C157.044 80.6768 156.763 80.8393 156.42 80.642L154.933 79.7797V79.277L156.297 80.0697C156.47 80.1703 156.609 80.0891 156.609 79.8918L156.617 77.3164C156.617 77.1192 156.478 76.8756 156.304 76.7789L154.94 75.9861V75.4873L156.428 76.3458H156.432Z" fill="#22B573"/>
<path d="M154.767 72.8274C153.434 72.0966 151.28 72.0966 149.954 72.8274C149.634 73.0015 149.395 73.2025 149.229 73.4152C149.395 73.6318 149.642 73.8406 149.966 74.0185C151.299 74.7494 153.453 74.7494 154.779 74.0185C155.099 73.8445 155.337 73.6434 155.499 73.4307C155.33 73.2103 155.087 73.0053 154.759 72.8274H154.767Z" fill="#512C14"/>
<path d="M154.782 74.0178C154.917 73.9443 155.033 73.867 155.14 73.7819C155.094 73.6156 154.982 73.4377 154.755 73.2831C154 72.7533 152.986 72.6914 152.986 72.6914C152.986 72.6914 153.595 72.8964 153.719 73.6852C153.761 73.9598 153.638 74.246 153.499 74.4586C153.969 74.3658 154.408 74.2189 154.782 74.0139V74.0178Z" fill="#683315"/>
</svg>
