<svg width="21" height="20" viewBox="0 0 21 20" fill="none" xmlns="http://www.w3.org/2000/svg">
<path fill-rule="evenodd" clip-rule="evenodd" d="M10.6838 3.31726C13.8039 3.31726 16.7573 4.47409 19.0016 6.57546C19.3411 6.89307 19.3505 7.41882 19.023 7.74804C18.8553 7.91638 18.6312 8.00097 18.408 8.00097C18.1942 8.00097 17.9795 7.92385 17.8136 7.76794C15.8891 5.9676 13.3575 4.9758 10.6838 4.9758C8.01015 4.9758 5.47847 5.9676 3.55405 7.76794C3.21621 8.08721 2.67395 8.07809 2.34466 7.74804C2.01793 7.41882 2.02649 6.89307 2.3669 6.57546C4.6112 4.47409 7.56454 3.31726 10.6838 3.31726ZM10.6841 7.46344C8.60749 7.46344 6.58898 8.29353 5.1461 9.74227C4.81937 10.0723 4.82793 10.5972 5.16834 10.9149C5.50703 11.2333 6.05015 11.2242 6.37773 10.8949C7.49902 9.76797 9.06849 9.12197 10.6841 9.12197C12.2998 9.12197 13.8693 9.76797 14.9906 10.8949C15.1582 11.0633 15.3823 11.1479 15.6064 11.1479C15.8202 11.1479 16.0349 11.0708 16.2 10.9149C16.5404 10.5972 16.5489 10.0723 16.2222 9.74227C14.7793 8.29353 12.7608 7.46344 10.6841 7.46344ZM7.7137 12.7732C8.51511 12.0236 9.56969 11.6098 10.6841 11.6098C11.7986 11.6098 12.8532 12.0236 13.6546 12.7732C13.9941 13.0917 14.0036 13.6166 13.676 13.9458C13.5083 14.115 13.2843 14.1996 13.0602 14.1996C12.8463 14.1996 12.6317 14.1216 12.4666 13.9666C11.5044 13.066 9.86392 13.066 8.90171 13.9666C8.56387 14.285 8.02161 14.2759 7.69232 13.9458C7.36474 13.6166 7.37415 13.0917 7.7137 12.7732ZM9.82885 15.7561C9.82885 15.2984 10.2112 14.9269 10.6841 14.9269C11.1571 14.9269 11.5394 15.2984 11.5394 15.7561C11.5394 16.2139 11.1571 16.5854 10.6841 16.5854C10.2112 16.5854 9.82885 16.2139 9.82885 15.7561Z" fill="#97E11B"/>
</svg>
