<svg width="80" height="80" viewBox="0 0 80 80" fill="none" xmlns="http://www.w3.org/2000/svg">
<path fill-rule="evenodd" clip-rule="evenodd" d="M40 80C62.0914 80 80 62.0914 80 40C80 17.9086 62.0914 0 40 0C17.9086 0 0 17.9086 0 40C0 62.0914 17.9086 80 40 80Z" fill="#E7FCF0"/>
<path fill-rule="evenodd" clip-rule="evenodd" d="M44.25 24.5C43.215 24.5 42.375 25.3419 42.375 26.375V42.3875C42.375 43.0588 42.0169 43.6794 41.4338 44.0131C39.7013 45.0087 38.625 46.8725 38.625 48.875C38.625 51.9762 41.1488 54.5 44.25 54.5C47.3512 54.5 49.875 51.9762 49.875 48.875C49.875 46.8725 48.7987 45.0087 47.0662 44.0131C46.4831 43.6794 46.125 43.0588 46.125 42.3875V26.375C46.125 25.8744 45.9319 25.4131 45.5869 25.0738C45.2138 24.6913 44.7506 24.5 44.25 24.5ZM44.25 58.25C39.0806 58.25 34.875 54.0444 34.875 48.875C34.875 45.9125 36.2887 43.1338 38.625 41.3806V26.375C38.625 23.2737 41.1488 20.75 44.25 20.75C45.7725 20.75 47.1863 21.3444 48.2381 22.4225C49.2825 23.4388 49.875 24.8544 49.875 26.375V41.3806C52.2113 43.1338 53.625 45.9125 53.625 48.875C53.625 54.0444 49.4194 58.25 44.25 58.25ZM25.5 30.125H23.625C22.5938 30.125 21.75 29.2812 21.75 28.25C21.75 27.2188 22.5938 26.375 23.625 26.375H25.5V24.5C25.5 23.4688 26.3438 22.625 27.375 22.625C28.4062 22.625 29.25 23.4688 29.25 24.5V26.375H31.125C32.1562 26.375 33 27.2188 33 28.25C33 29.2812 32.1562 30.125 31.125 30.125H29.25V32C29.25 33.0312 28.4062 33.875 27.375 33.875C26.3438 33.875 25.5 33.0312 25.5 32V30.125Z" fill="#97E11B"/>
</svg>
