<svg width="25" height="24" viewBox="0 0 25 24" fill="none" xmlns="http://www.w3.org/2000/svg">
<path fill-rule="evenodd" clip-rule="evenodd" d="M12.6915 13.1675C11.8645 13.1675 11.1915 12.4945 11.1915 11.6675C11.1915 10.8405 11.8645 10.1675 12.6915 10.1675C13.5185 10.1675 14.1915 10.8405 14.1915 11.6675C14.1915 12.4945 13.5185 13.1675 12.6915 13.1675ZM12.6915 8.1675C10.7615 8.1675 9.19145 9.7375 9.19145 11.6675C9.19145 13.5975 10.7615 15.1675 12.6915 15.1675C14.6215 15.1675 16.1915 13.5975 16.1915 11.6675C16.1915 9.7375 14.6215 8.1675 12.6915 8.1675ZM12.9112 16.6651C8.60516 16.7651 5.79616 13.0821 4.86416 11.6631C5.89016 10.0581 8.47416 6.7721 12.4722 6.6701C16.7612 6.5611 19.5862 10.2531 20.5182 11.6721C19.4932 13.2771 16.9082 16.5631 12.9112 16.6651ZM22.5592 11.1701C21.9212 10.0581 18.3972 4.4841 12.4212 4.6711C6.89316 4.8111 3.67816 9.6811 2.82416 11.1701C2.64716 11.4781 2.64716 11.8571 2.82416 12.1651C3.45316 13.2621 6.85316 18.6671 12.7162 18.6671C12.7982 18.6671 12.8802 18.6661 12.9622 18.6641C18.4892 18.5231 21.7052 13.6541 22.5592 12.1651C22.7352 11.8571 22.7352 11.4781 22.5592 11.1701Z" fill="#464E5F"/>
</svg>
