<svg width="48" height="48" viewBox="0 0 48 48" fill="none" xmlns="http://www.w3.org/2000/svg">
<circle cx="24" cy="24" r="24" fill="#97E11B"/>
<g clip-path="url(#clip0_233_4205)">
<path d="M19.9412 30C19.6442 28.727 18.3042 27.686 17.7542 27C16.8124 25.8233 16.2222 24.4044 16.0515 22.9069C15.8808 21.4094 16.1366 19.8942 16.7895 18.5357C17.4423 17.1773 18.4656 16.0308 19.7416 15.2286C21.0175 14.4263 22.4941 14.0007 24.0013 14.001C25.5085 14.0012 26.985 14.4272 28.2606 15.2299C29.5363 16.0326 30.5592 17.1794 31.2117 18.538C31.8641 19.8967 32.1194 21.412 31.9482 22.9095C31.7771 24.4069 31.1864 25.8256 30.2442 27.002C29.6942 27.687 28.3562 28.728 28.0592 30H19.9402H19.9412ZM28.0002 32V33C28.0002 33.5304 27.7895 34.0391 27.4144 34.4142C27.0393 34.7893 26.5306 35 26.0002 35H22.0002C21.4698 35 20.9611 34.7893 20.586 34.4142C20.2109 34.0391 20.0002 33.5304 20.0002 33V32H28.0002ZM25.0002 22.005V18L20.5002 24.005H23.0002V28.005L27.5002 22.005H25.0002Z" fill="white"/>
</g>
<defs>
<clipPath id="clip0_233_4205">
<rect width="24" height="24" fill="white" transform="translate(12 12)"/>
</clipPath>
</defs>
</svg>
