<svg width="112" height="112" viewBox="0 0 112 112" fill="none" xmlns="http://www.w3.org/2000/svg">
<g filter="url(#filter0_d_801_10332)">
<circle cx="49" cy="48" r="40" fill="#00D2DF"/>
</g>
<path fill-rule="evenodd" clip-rule="evenodd" d="M65.8425 51.9547C64.9209 51.0284 63.4228 51.0237 62.5013 51.9476C61.575 52.8692 61.5702 54.3649 62.4918 55.2888L63.1841 55.9859L59.4412 55.9859C54.2285 55.9859 49.9894 51.7444 49.9894 46.5341C49.9894 41.3214 54.2285 37.0822 59.4412 37.0822H63.1936L62.5013 37.7698C61.575 38.6914 61.5702 40.1871 62.4918 41.1111C62.9526 41.5742 63.5599 41.8081 64.1671 41.8081C64.7697 41.8081 65.3746 41.5766 65.833 41.1181L70.559 36.4135C71.0056 35.9716 71.2537 35.3714 71.256 34.7452C71.2584 34.1167 71.0103 33.5165 70.5684 33.0723L65.8425 28.3251C64.9209 27.3988 63.4228 27.3941 62.5013 28.318C61.575 29.2395 61.5702 30.7353 62.4918 31.6592L63.1841 32.3563H59.4412C54.5121 32.3563 50.1666 34.8846 47.6264 38.7126C45.0862 34.8846 40.7407 32.3563 35.8116 32.3563H31.0857C29.7789 32.3563 28.7227 33.4125 28.7227 34.7192C28.7227 36.0236 29.7789 37.0822 31.0857 37.0822H35.8116C41.0243 37.0822 45.2634 41.3214 45.2634 46.5341C45.2634 51.7444 41.0243 55.9859 35.8116 55.9859H31.0857C29.7789 55.9859 28.7227 57.0422 28.7227 58.3489C28.7227 59.6532 29.7789 60.7118 31.0857 60.7118H35.8116C40.7407 60.7118 45.0862 58.1811 47.6264 54.3531C50.1666 58.1811 54.5121 60.7118 59.4412 60.7118H63.1936L62.5013 61.3995C61.575 62.321 61.5702 63.8168 62.4918 64.7407C62.9526 65.2038 63.5599 65.4378 64.1671 65.4378C64.7697 65.4378 65.3746 65.2062 65.833 64.7478L70.559 60.0431C71.0056 59.6012 71.2537 59.001 71.256 58.3749C71.2584 57.7463 71.0103 57.1461 70.5684 56.7019L65.8425 51.9547Z" fill="white"/>
<defs>
<filter id="filter0_d_801_10332" x="0" y="0" width="112" height="112" filterUnits="userSpaceOnUse" color-interpolation-filters="sRGB">
<feFlood flood-opacity="0" result="BackgroundImageFix"/>
<feColorMatrix in="SourceAlpha" type="matrix" values="0 0 0 0 0 0 0 0 0 0 0 0 0 0 0 0 0 0 127 0" result="hardAlpha"/>
<feOffset dx="7" dy="8"/>
<feGaussianBlur stdDeviation="8"/>
<feComposite in2="hardAlpha" operator="out"/>
<feColorMatrix type="matrix" values="0 0 0 0 0.1625 0 0 0 0 0.1625 0 0 0 0 0.1625 0 0 0 0.1 0"/>
<feBlend mode="normal" in2="BackgroundImageFix" result="effect1_dropShadow_801_10332"/>
<feBlend mode="normal" in="SourceGraphic" in2="effect1_dropShadow_801_10332" result="shape"/>
</filter>
</defs>
</svg>
