<svg width="32" height="32" viewBox="0 0 32 32" fill="none" xmlns="http://www.w3.org/2000/svg">
<path fill-rule="evenodd" clip-rule="evenodd" d="M15.9995 5.3335C20.8635 5.3335 25.4675 7.1935 28.9661 10.5722C29.4955 11.0828 29.5101 11.9282 28.9995 12.4575C28.7381 12.7282 28.3888 12.8642 28.0408 12.8642C27.7075 12.8642 27.3728 12.7402 27.1141 12.4895C24.1141 9.59483 20.1675 8.00016 15.9995 8.00016C11.8315 8.00016 7.88479 9.59483 4.88479 12.4895C4.35813 13.0028 3.51279 12.9882 2.99946 12.4575C2.49013 11.9282 2.50346 11.0828 3.03413 10.5722C6.53279 7.1935 11.1368 5.3335 15.9995 5.3335ZM16 11.9999C12.7627 11.9999 9.61599 13.3346 7.36666 15.6639C6.85733 16.1946 6.87066 17.0386 7.40133 17.5492C7.92933 18.0612 8.77599 18.0466 9.28666 17.5172C11.0347 15.7052 13.4813 14.6666 16 14.6666C18.5187 14.6666 20.9653 15.7052 22.7133 17.5172C22.9747 17.7879 23.324 17.9239 23.6733 17.9239C24.0067 17.9239 24.3413 17.7999 24.5987 17.5492C25.1293 17.0386 25.1427 16.1946 24.6333 15.6639C22.384 13.3346 19.2373 11.9999 16 11.9999ZM11.3693 20.5372C12.6187 19.3319 14.2627 18.6666 16 18.6666C17.7373 18.6666 19.3813 19.3319 20.6307 20.5372C21.16 21.0492 21.1747 21.8932 20.664 22.4226C20.4027 22.6946 20.0533 22.8306 19.704 22.8306C19.3707 22.8306 19.036 22.7052 18.7787 22.4559C17.2787 21.0079 14.7213 21.0079 13.2213 22.4559C12.6947 22.9679 11.8493 22.9532 11.336 22.4226C10.8253 21.8932 10.84 21.0492 11.3693 20.5372ZM14.6667 25.3332C14.6667 24.5972 15.2627 23.9999 16 23.9999C16.7373 23.9999 17.3333 24.5972 17.3333 25.3332C17.3333 26.0692 16.7373 26.6666 16 26.6666C15.2627 26.6666 14.6667 26.0692 14.6667 25.3332Z" fill="#9C9C9C"/>
</svg>
