<svg width="32" height="32" viewBox="0 0 32 32" fill="none" xmlns="http://www.w3.org/2000/svg">
<path fill-rule="evenodd" clip-rule="evenodd" d="M7.46562 4H24.5336C26.4456 4 28.0003 5.66133 28.0003 7.70267V24.2973C28.0003 26.3387 26.4456 28 24.5336 28H22.667C21.9296 28 21.3336 27.404 21.3336 26.6667C21.3336 25.9293 21.9296 25.3333 22.667 25.3333H24.5336C24.967 25.3333 25.3336 24.8587 25.3336 24.2973V7.70267C25.3336 7.14133 24.967 6.66667 24.5336 6.66667H7.46562C7.03229 6.66667 6.66696 7.14133 6.66696 7.70267V9.33333C6.66696 10.0707 6.06962 10.6667 5.33362 10.6667C4.59629 10.6667 4.00029 10.0707 4.00029 9.33333V7.70267C4.00029 5.66133 5.55496 4 7.46562 4ZM4.01239 20.2267C3.91106 19.4973 4.42173 18.824 5.15106 18.724C7.04439 18.4653 8.89239 19.0853 10.2364 20.428C12.0191 22.2133 12.5031 24.9467 11.4377 27.2307C11.2111 27.7147 10.7311 28 10.2284 28C10.0391 28 9.84706 27.96 9.66573 27.8747C8.99906 27.564 8.70973 26.7707 9.02039 26.1027C9.61373 24.832 9.34573 23.308 8.35106 22.3147C7.60173 21.5667 6.56973 21.224 5.51506 21.364C4.77773 21.4693 4.11239 20.956 4.01239 20.2267ZM5.14973 13.4361C4.4204 13.5375 3.91107 14.2108 4.0124 14.9401C4.11373 15.6681 4.7844 16.1788 5.5164 16.0761C8.03773 15.7321 10.5137 16.5561 12.3124 18.3535C14.3871 20.4295 15.1671 23.4721 14.3457 26.2948C14.1404 27.0015 14.5471 27.7415 15.2537 27.9468C15.3791 27.9828 15.5044 28.0001 15.6257 28.0001C16.2044 28.0001 16.7364 27.6228 16.9057 27.0388C17.9991 23.2841 16.9604 19.2335 14.1977 16.4681C11.8044 14.0748 8.5124 12.9681 5.14973 13.4361ZM3.99989 25.3333C3.99989 24.596 4.59589 24 5.33322 24C6.07056 24 6.66656 24.596 6.66656 25.3333C6.66656 26.0707 6.07056 26.6667 5.33322 26.6667C4.59589 26.6667 3.99989 26.0707 3.99989 25.3333Z" fill="#9C9C9C"/>
</svg>
